%TF.GenerationSoftware,KiCad,Pcbnew,8.0.0*%
%TF.CreationDate,2024-03-24T15:12:36-05:00*%
%TF.ProjectId,PIC Developement Board v1.0,50494320-4465-4766-956c-6f70656d656e,rev?*%
%TF.SameCoordinates,Original*%
%TF.FileFunction,Copper,L1,Top*%
%TF.FilePolarity,Positive*%
%FSLAX46Y46*%
G04 Gerber Fmt 4.6, Leading zero omitted, Abs format (unit mm)*
G04 Created by KiCad (PCBNEW 8.0.0) date 2024-03-24 15:12:36*
%MOMM*%
%LPD*%
G01*
G04 APERTURE LIST*
G04 Aperture macros list*
%AMRoundRect*
0 Rectangle with rounded corners*
0 $1 Rounding radius*
0 $2 $3 $4 $5 $6 $7 $8 $9 X,Y pos of 4 corners*
0 Add a 4 corners polygon primitive as box body*
4,1,4,$2,$3,$4,$5,$6,$7,$8,$9,$2,$3,0*
0 Add four circle primitives for the rounded corners*
1,1,$1+$1,$2,$3*
1,1,$1+$1,$4,$5*
1,1,$1+$1,$6,$7*
1,1,$1+$1,$8,$9*
0 Add four rect primitives between the rounded corners*
20,1,$1+$1,$2,$3,$4,$5,0*
20,1,$1+$1,$4,$5,$6,$7,0*
20,1,$1+$1,$6,$7,$8,$9,0*
20,1,$1+$1,$8,$9,$2,$3,0*%
G04 Aperture macros list end*
%TA.AperFunction,SMDPad,CuDef*%
%ADD10RoundRect,0.243750X-0.456250X0.243750X-0.456250X-0.243750X0.456250X-0.243750X0.456250X0.243750X0*%
%TD*%
%TA.AperFunction,SMDPad,CuDef*%
%ADD11RoundRect,0.250000X-0.450000X0.262500X-0.450000X-0.262500X0.450000X-0.262500X0.450000X0.262500X0*%
%TD*%
%TA.AperFunction,ComponentPad*%
%ADD12R,0.850000X0.850000*%
%TD*%
%TA.AperFunction,ComponentPad*%
%ADD13O,0.850000X0.850000*%
%TD*%
%TA.AperFunction,SMDPad,CuDef*%
%ADD14RoundRect,0.250000X0.250000X0.475000X-0.250000X0.475000X-0.250000X-0.475000X0.250000X-0.475000X0*%
%TD*%
%TA.AperFunction,SMDPad,CuDef*%
%ADD15RoundRect,0.150000X-0.875000X-0.150000X0.875000X-0.150000X0.875000X0.150000X-0.875000X0.150000X0*%
%TD*%
%TA.AperFunction,SMDPad,CuDef*%
%ADD16RoundRect,0.250000X-0.262500X-0.450000X0.262500X-0.450000X0.262500X0.450000X-0.262500X0.450000X0*%
%TD*%
%TA.AperFunction,ViaPad*%
%ADD17C,0.600000*%
%TD*%
%TA.AperFunction,Conductor*%
%ADD18C,0.200000*%
%TD*%
G04 APERTURE END LIST*
D10*
%TO.P,D1,1,K*%
%TO.N,Earth*%
X141000000Y-89000000D03*
%TO.P,D1,2,A*%
%TO.N,Net-(D1-A)*%
X141000000Y-90875000D03*
%TD*%
D11*
%TO.P,R2,1*%
%TO.N,Net-(J1-Pin_2)*%
X143500000Y-89000000D03*
%TO.P,R2,2*%
%TO.N,Net-(D1-A)*%
X143500000Y-90825000D03*
%TD*%
D12*
%TO.P,J4,1,Pin_1*%
%TO.N,Earth*%
X147000000Y-90000000D03*
D13*
%TO.P,J4,2,Pin_2*%
%TO.N,Net-(J1-Pin_2)*%
X146000000Y-90000000D03*
%TD*%
D14*
%TO.P,C1,1*%
%TO.N,Earth*%
X147500000Y-93000000D03*
%TO.P,C1,2*%
%TO.N,Net-(J1-Pin_2)*%
X145600000Y-93000000D03*
%TD*%
D12*
%TO.P,J1,1,Pin_1*%
%TO.N,Net-(J1-Pin_1)*%
X159500000Y-93500000D03*
D13*
%TO.P,J1,2,Pin_2*%
%TO.N,Net-(J1-Pin_2)*%
X159500000Y-94500000D03*
%TO.P,J1,3,Pin_3*%
%TO.N,Earth*%
X159500000Y-95500000D03*
%TO.P,J1,4,Pin_4*%
%TO.N,Net-(J1-Pin_4)*%
X159500000Y-96500000D03*
%TO.P,J1,5,Pin_5*%
%TO.N,Net-(J1-Pin_5)*%
X159500000Y-97500000D03*
%TO.P,J1,6,Pin_6*%
%TO.N,unconnected-(J1-Pin_6-Pad6)*%
X159500000Y-98500000D03*
%TO.P,J1,7,Pin_7*%
%TO.N,unconnected-(J1-Pin_7-Pad7)*%
X159500000Y-99500000D03*
%TO.P,J1,8,Pin_8*%
%TO.N,unconnected-(J1-Pin_8-Pad8)*%
X159500000Y-100500000D03*
%TD*%
D15*
%TO.P,U1,1,Vdd*%
%TO.N,Net-(J1-Pin_2)*%
X146200000Y-96110000D03*
%TO.P,U1,2,RA5*%
%TO.N,Net-(J3-Pin_1)*%
X146200000Y-97380000D03*
%TO.P,U1,3,RA4*%
%TO.N,Net-(J3-Pin_2)*%
X146200000Y-98650000D03*
%TO.P,U1,4,Vpp/RA3*%
%TO.N,Net-(J1-Pin_1)*%
X146200000Y-99920000D03*
%TO.P,U1,5,RC5*%
%TO.N,Net-(J3-Pin_3)*%
X146200000Y-101190000D03*
%TO.P,U1,6,RC4*%
%TO.N,Net-(J3-Pin_4)*%
X146200000Y-102460000D03*
%TO.P,U1,7,RC3*%
%TO.N,Net-(J3-Pin_5)*%
X146200000Y-103730000D03*
%TO.P,U1,8,RC6*%
%TO.N,Net-(J3-Pin_6)*%
X146200000Y-105000000D03*
%TO.P,U1,9,RC7*%
%TO.N,Net-(J3-Pin_7)*%
X146200000Y-106270000D03*
%TO.P,U1,10,RB7*%
%TO.N,Net-(J3-Pin_8)*%
X146200000Y-107540000D03*
%TO.P,U1,11,RB6*%
%TO.N,Net-(J3-Pin_15)*%
X155500000Y-107540000D03*
%TO.P,U1,12,RB5*%
%TO.N,Net-(J3-Pin_14)*%
X155500000Y-106270000D03*
%TO.P,U1,13,RB4*%
%TO.N,Net-(J3-Pin_13)*%
X155500000Y-105000000D03*
%TO.P,U1,14,RC2*%
%TO.N,Net-(J3-Pin_12)*%
X155500000Y-103730000D03*
%TO.P,U1,15,RC1*%
%TO.N,Net-(J3-Pin_11)*%
X155500000Y-102460000D03*
%TO.P,U1,16,RC0*%
%TO.N,Net-(J3-Pin_10)*%
X155500000Y-101190000D03*
%TO.P,U1,17,RA2*%
%TO.N,Net-(J3-Pin_9)*%
X155500000Y-99920000D03*
%TO.P,U1,18,RA1/ICSPCLK*%
%TO.N,Net-(J1-Pin_5)*%
X155500000Y-98650000D03*
%TO.P,U1,19,RA0/ICSPDAT*%
%TO.N,Net-(J1-Pin_4)*%
X155500000Y-97380000D03*
%TO.P,U1,20,Vss*%
%TO.N,Earth*%
X155500000Y-96110000D03*
%TD*%
D16*
%TO.P,R1,1*%
%TO.N,Net-(J1-Pin_2)*%
X149587500Y-90000000D03*
%TO.P,R1,2*%
%TO.N,Net-(J1-Pin_1)*%
X151412500Y-90000000D03*
%TD*%
D12*
%TO.P,J3,1,Pin_1*%
%TO.N,Net-(J3-Pin_1)*%
X141000000Y-93500000D03*
D13*
%TO.P,J3,2,Pin_2*%
%TO.N,Net-(J3-Pin_2)*%
X141000000Y-94500000D03*
%TO.P,J3,3,Pin_3*%
%TO.N,Net-(J3-Pin_3)*%
X141000000Y-95500000D03*
%TO.P,J3,4,Pin_4*%
%TO.N,Net-(J3-Pin_4)*%
X141000000Y-96500000D03*
%TO.P,J3,5,Pin_5*%
%TO.N,Net-(J3-Pin_5)*%
X141000000Y-97500000D03*
%TO.P,J3,6,Pin_6*%
%TO.N,Net-(J3-Pin_6)*%
X141000000Y-98500000D03*
%TO.P,J3,7,Pin_7*%
%TO.N,Net-(J3-Pin_7)*%
X141000000Y-99500000D03*
%TO.P,J3,8,Pin_8*%
%TO.N,Net-(J3-Pin_8)*%
X141000000Y-100500000D03*
%TO.P,J3,9,Pin_9*%
%TO.N,Net-(J3-Pin_9)*%
X141000000Y-101500000D03*
%TO.P,J3,10,Pin_10*%
%TO.N,Net-(J3-Pin_10)*%
X141000000Y-102500000D03*
%TO.P,J3,11,Pin_11*%
%TO.N,Net-(J3-Pin_11)*%
X141000000Y-103500000D03*
%TO.P,J3,12,Pin_12*%
%TO.N,Net-(J3-Pin_12)*%
X141000000Y-104500000D03*
%TO.P,J3,13,Pin_13*%
%TO.N,Net-(J3-Pin_13)*%
X141000000Y-105500000D03*
%TO.P,J3,14,Pin_14*%
%TO.N,Net-(J3-Pin_14)*%
X141000000Y-106500000D03*
%TO.P,J3,15,Pin_15*%
%TO.N,Net-(J3-Pin_15)*%
X141000000Y-107500000D03*
%TD*%
D17*
%TO.N,Net-(J3-Pin_13)*%
X151500000Y-105500000D03*
%TO.N,Net-(J3-Pin_12)*%
X151500000Y-104500000D03*
%TO.N,Net-(J3-Pin_14)*%
X151500000Y-106500000D03*
%TO.N,Net-(J3-Pin_9)*%
X151500000Y-101500000D03*
%TO.N,Net-(J3-Pin_11)*%
X151500000Y-103500000D03*
%TO.N,Net-(J3-Pin_15)*%
X151500000Y-107500000D03*
%TO.N,Net-(J3-Pin_10)*%
X151500000Y-102500000D03*
%TO.N,Earth*%
X150500000Y-97000000D03*
%TD*%
D18*
%TO.N,Net-(J1-Pin_2)*%
X156450000Y-89000000D02*
X150587500Y-89000000D01*
X160225000Y-92775000D02*
X156450000Y-89000000D01*
X160225000Y-94376040D02*
X160225000Y-92775000D01*
X160101040Y-94500000D02*
X160225000Y-94376040D01*
X159500000Y-94500000D02*
X160101040Y-94500000D01*
X150587500Y-89000000D02*
X149587500Y-90000000D01*
%TO.N,Net-(D1-A)*%
X143450000Y-90875000D02*
X143500000Y-90825000D01*
X141000000Y-90875000D02*
X143450000Y-90875000D01*
%TO.N,Net-(J1-Pin_2)*%
X145600000Y-93000000D02*
X145600000Y-90400000D01*
X145600000Y-90400000D02*
X146000000Y-90000000D01*
X145600000Y-93000000D02*
X145600000Y-95510000D01*
X145600000Y-95510000D02*
X146200000Y-96110000D01*
X145000000Y-89000000D02*
X146000000Y-90000000D01*
X143500000Y-89000000D02*
X145000000Y-89000000D01*
%TO.N,Net-(J1-Pin_1)*%
X148428529Y-99920000D02*
X151412500Y-96936029D01*
X146200000Y-99920000D02*
X148428529Y-99920000D01*
X154912500Y-93500000D02*
X151412500Y-90000000D01*
X151412500Y-96936029D02*
X151412500Y-90000000D01*
X159500000Y-93500000D02*
X154912500Y-93500000D01*
%TO.N,Net-(J1-Pin_5)*%
X159474695Y-97500000D02*
X159500000Y-97500000D01*
X158324695Y-98650000D02*
X159474695Y-97500000D01*
X155500000Y-98650000D02*
X158324695Y-98650000D01*
%TO.N,Net-(J1-Pin_4)*%
X158594695Y-97380000D02*
X159474695Y-96500000D01*
X155500000Y-97380000D02*
X158594695Y-97380000D01*
X159474695Y-96500000D02*
X159500000Y-96500000D01*
%TO.N,Net-(J3-Pin_13)*%
X155500000Y-105000000D02*
X152000000Y-105000000D01*
X152000000Y-105000000D02*
X151500000Y-105500000D01*
%TO.N,Net-(J3-Pin_12)*%
X155500000Y-103730000D02*
X155130000Y-104100000D01*
X151900000Y-104100000D02*
X151500000Y-104500000D01*
X155130000Y-104100000D02*
X151900000Y-104100000D01*
%TO.N,Net-(J3-Pin_8)*%
X141725000Y-104089999D02*
X141725000Y-100623960D01*
X141601040Y-100500000D02*
X141000000Y-100500000D01*
X141725000Y-100623960D02*
X141601040Y-100500000D01*
X145175001Y-107540000D02*
X141725000Y-104089999D01*
X146200000Y-107540000D02*
X145175001Y-107540000D01*
%TO.N,Net-(J3-Pin_14)*%
X151730000Y-106270000D02*
X151500000Y-106500000D01*
X155500000Y-106270000D02*
X151730000Y-106270000D01*
%TO.N,Net-(J3-Pin_9)*%
X153080000Y-99920000D02*
X151500000Y-101500000D01*
X155500000Y-99920000D02*
X153080000Y-99920000D01*
%TO.N,Net-(J3-Pin_11)*%
X152540000Y-102460000D02*
X151500000Y-103500000D01*
X155500000Y-102460000D02*
X152540000Y-102460000D01*
%TO.N,Net-(J3-Pin_15)*%
X155500000Y-107540000D02*
X151540000Y-107540000D01*
X151540000Y-107540000D02*
X151500000Y-107500000D01*
%TO.N,Net-(J3-Pin_10)*%
X155500000Y-101190000D02*
X152810000Y-101190000D01*
X152810000Y-101190000D02*
X151500000Y-102500000D01*
%TO.N,Net-(J3-Pin_4)*%
X143500000Y-98974695D02*
X141025305Y-96500000D01*
X145175001Y-102460000D02*
X143500000Y-100784999D01*
X143500000Y-100784999D02*
X143500000Y-98974695D01*
X141025305Y-96500000D02*
X141000000Y-96500000D01*
X146200000Y-102460000D02*
X145175001Y-102460000D01*
%TO.N,Net-(J3-Pin_3)*%
X144479657Y-98913971D02*
X141065686Y-95500000D01*
X141065686Y-95500000D02*
X141000000Y-95500000D01*
X145175001Y-101190000D02*
X144479657Y-100494656D01*
X144479657Y-100494656D02*
X144479657Y-98913971D01*
X146200000Y-101190000D02*
X145175001Y-101190000D01*
%TO.N,Net-(J3-Pin_7)*%
X141500000Y-99500000D02*
X141000000Y-99500000D01*
X145175001Y-106270000D02*
X142200000Y-103294999D01*
X142200000Y-103294999D02*
X142200000Y-100200000D01*
X142200000Y-100200000D02*
X141500000Y-99500000D01*
X146200000Y-106270000D02*
X145175001Y-106270000D01*
%TO.N,Net-(J3-Pin_1)*%
X146200000Y-97380000D02*
X145046726Y-97380000D01*
X141166726Y-93500000D02*
X141000000Y-93500000D01*
X145046726Y-97380000D02*
X141166726Y-93500000D01*
%TO.N,Net-(J3-Pin_6)*%
X142600000Y-102424999D02*
X142600000Y-99933274D01*
X142600000Y-99933274D02*
X141166726Y-98500000D01*
X141166726Y-98500000D02*
X141000000Y-98500000D01*
X145175001Y-105000000D02*
X142600000Y-102424999D01*
X146200000Y-105000000D02*
X145175001Y-105000000D01*
%TO.N,Net-(J3-Pin_5)*%
X143000000Y-101554999D02*
X143000000Y-99474696D01*
X145175001Y-103730000D02*
X143000000Y-101554999D01*
X146200000Y-103730000D02*
X145175001Y-103730000D01*
X141025304Y-97500000D02*
X141000000Y-97500000D01*
X143000000Y-99474696D02*
X141025304Y-97500000D01*
%TO.N,Net-(J3-Pin_2)*%
X146200000Y-98650000D02*
X145175001Y-98650000D01*
X141025001Y-94500000D02*
X141000000Y-94500000D01*
X145175001Y-98650000D02*
X141025001Y-94500000D01*
%TO.N,Earth*%
X149600000Y-93000000D02*
X147500000Y-93000000D01*
X155500000Y-96110000D02*
X156110000Y-95500000D01*
X156110000Y-95500000D02*
X159500000Y-95500000D01*
X141812500Y-88187500D02*
X145812500Y-88187500D01*
X149600000Y-93000000D02*
X149600000Y-96100000D01*
X141000000Y-89000000D02*
X141812500Y-88187500D01*
X147500000Y-93000000D02*
X147500000Y-90500000D01*
X149600000Y-96100000D02*
X150500000Y-97000000D01*
X147500000Y-90500000D02*
X147000000Y-90000000D01*
X145812500Y-88187500D02*
X147000000Y-89375000D01*
X147000000Y-89375000D02*
X147000000Y-90000000D01*
%TD*%
M02*
