%TF.GenerationSoftware,KiCad,Pcbnew,8.0.0*%
%TF.CreationDate,2024-03-24T15:12:36-05:00*%
%TF.ProjectId,PIC Developement Board v1.0,50494320-4465-4766-956c-6f70656d656e,rev?*%
%TF.SameCoordinates,Original*%
%TF.FileFunction,Soldermask,Top*%
%TF.FilePolarity,Negative*%
%FSLAX46Y46*%
G04 Gerber Fmt 4.6, Leading zero omitted, Abs format (unit mm)*
G04 Created by KiCad (PCBNEW 8.0.0) date 2024-03-24 15:12:36*
%MOMM*%
%LPD*%
G01*
G04 APERTURE LIST*
G04 Aperture macros list*
%AMRoundRect*
0 Rectangle with rounded corners*
0 $1 Rounding radius*
0 $2 $3 $4 $5 $6 $7 $8 $9 X,Y pos of 4 corners*
0 Add a 4 corners polygon primitive as box body*
4,1,4,$2,$3,$4,$5,$6,$7,$8,$9,$2,$3,0*
0 Add four circle primitives for the rounded corners*
1,1,$1+$1,$2,$3*
1,1,$1+$1,$4,$5*
1,1,$1+$1,$6,$7*
1,1,$1+$1,$8,$9*
0 Add four rect primitives between the rounded corners*
20,1,$1+$1,$2,$3,$4,$5,0*
20,1,$1+$1,$4,$5,$6,$7,0*
20,1,$1+$1,$6,$7,$8,$9,0*
20,1,$1+$1,$8,$9,$2,$3,0*%
G04 Aperture macros list end*
%ADD10RoundRect,0.243750X-0.456250X0.243750X-0.456250X-0.243750X0.456250X-0.243750X0.456250X0.243750X0*%
%ADD11RoundRect,0.250000X-0.450000X0.262500X-0.450000X-0.262500X0.450000X-0.262500X0.450000X0.262500X0*%
%ADD12R,0.850000X0.850000*%
%ADD13O,0.850000X0.850000*%
%ADD14RoundRect,0.250000X0.250000X0.475000X-0.250000X0.475000X-0.250000X-0.475000X0.250000X-0.475000X0*%
%ADD15RoundRect,0.150000X-0.875000X-0.150000X0.875000X-0.150000X0.875000X0.150000X-0.875000X0.150000X0*%
%ADD16RoundRect,0.250000X-0.262500X-0.450000X0.262500X-0.450000X0.262500X0.450000X-0.262500X0.450000X0*%
G04 APERTURE END LIST*
D10*
%TO.C,D1*%
X141000000Y-89000000D03*
X141000000Y-90875000D03*
%TD*%
D11*
%TO.C,R2*%
X143500000Y-89000000D03*
X143500000Y-90825000D03*
%TD*%
D12*
%TO.C,J4*%
X147000000Y-90000000D03*
D13*
X146000000Y-90000000D03*
%TD*%
D14*
%TO.C,C1*%
X147500000Y-93000000D03*
X145600000Y-93000000D03*
%TD*%
D12*
%TO.C,J1*%
X159500000Y-93500000D03*
D13*
X159500000Y-94500000D03*
X159500000Y-95500000D03*
X159500000Y-96500000D03*
X159500000Y-97500000D03*
X159500000Y-98500000D03*
X159500000Y-99500000D03*
X159500000Y-100500000D03*
%TD*%
D15*
%TO.C,U1*%
X146200000Y-96110000D03*
X146200000Y-97380000D03*
X146200000Y-98650000D03*
X146200000Y-99920000D03*
X146200000Y-101190000D03*
X146200000Y-102460000D03*
X146200000Y-103730000D03*
X146200000Y-105000000D03*
X146200000Y-106270000D03*
X146200000Y-107540000D03*
X155500000Y-107540000D03*
X155500000Y-106270000D03*
X155500000Y-105000000D03*
X155500000Y-103730000D03*
X155500000Y-102460000D03*
X155500000Y-101190000D03*
X155500000Y-99920000D03*
X155500000Y-98650000D03*
X155500000Y-97380000D03*
X155500000Y-96110000D03*
%TD*%
D16*
%TO.C,R1*%
X149587500Y-90000000D03*
X151412500Y-90000000D03*
%TD*%
D12*
%TO.C,J3*%
X141000000Y-93500000D03*
D13*
X141000000Y-94500000D03*
X141000000Y-95500000D03*
X141000000Y-96500000D03*
X141000000Y-97500000D03*
X141000000Y-98500000D03*
X141000000Y-99500000D03*
X141000000Y-100500000D03*
X141000000Y-101500000D03*
X141000000Y-102500000D03*
X141000000Y-103500000D03*
X141000000Y-104500000D03*
X141000000Y-105500000D03*
X141000000Y-106500000D03*
X141000000Y-107500000D03*
%TD*%
M02*
