M48
; DRILL file {KiCad 8.0.0} date 2024-03-24T15:13:00-0500
; FORMAT={-:-/ absolute / inch / decimal}
; #@! TF.CreationDate,2024-03-24T15:13:00-05:00
; #@! TF.GenerationSoftware,Kicad,Pcbnew,8.0.0
; #@! TF.FileFunction,Plated,1,2,PTH
FMAT,2
INCH
; #@! TA.AperFunction,Plated,PTH,ViaDrill
T1C0.0118
; #@! TA.AperFunction,Plated,PTH,ComponentDrill
T2C0.0197
%
G90
G05
T1
X5.9252Y-3.8189
X5.9646Y-3.9961
X5.9646Y-4.0354
X5.9646Y-4.0748
X5.9646Y-4.1142
X5.9646Y-4.1535
X5.9646Y-4.1929
X5.9646Y-4.2323
T2
X5.5512Y-3.6811
X5.5512Y-3.7205
X5.5512Y-3.7598
X5.5512Y-3.7992
X5.5512Y-3.8386
X5.5512Y-3.878
X5.5512Y-3.9173
X5.5512Y-3.9567
X5.5512Y-3.9961
X5.5512Y-4.0354
X5.5512Y-4.0748
X5.5512Y-4.1142
X5.5512Y-4.1535
X5.5512Y-4.1929
X5.5512Y-4.2323
X5.748Y-3.5433
X5.7874Y-3.5433
X6.2795Y-3.6811
X6.2795Y-3.7205
X6.2795Y-3.7598
X6.2795Y-3.7992
X6.2795Y-3.8386
X6.2795Y-3.878
X6.2795Y-3.9173
X6.2795Y-3.9567
M30
