%TF.GenerationSoftware,KiCad,Pcbnew,8.0.0*%
%TF.CreationDate,2024-03-30T13:04:04-05:00*%
%TF.ProjectId,PIC_DEV_Board,5049435f-4445-4565-9f42-6f6172642e6b,rev?*%
%TF.SameCoordinates,Original*%
%TF.FileFunction,Legend,Top*%
%TF.FilePolarity,Positive*%
%FSLAX46Y46*%
G04 Gerber Fmt 4.6, Leading zero omitted, Abs format (unit mm)*
G04 Created by KiCad (PCBNEW 8.0.0) date 2024-03-30 13:04:04*
%MOMM*%
%LPD*%
G01*
G04 APERTURE LIST*
%ADD10C,0.150000*%
%ADD11C,0.120000*%
G04 APERTURE END LIST*
D10*
X144161905Y-88154819D02*
X144161905Y-87154819D01*
X144161905Y-87154819D02*
X144400000Y-87154819D01*
X144400000Y-87154819D02*
X144542857Y-87202438D01*
X144542857Y-87202438D02*
X144638095Y-87297676D01*
X144638095Y-87297676D02*
X144685714Y-87392914D01*
X144685714Y-87392914D02*
X144733333Y-87583390D01*
X144733333Y-87583390D02*
X144733333Y-87726247D01*
X144733333Y-87726247D02*
X144685714Y-87916723D01*
X144685714Y-87916723D02*
X144638095Y-88011961D01*
X144638095Y-88011961D02*
X144542857Y-88107200D01*
X144542857Y-88107200D02*
X144400000Y-88154819D01*
X144400000Y-88154819D02*
X144161905Y-88154819D01*
X145685714Y-88154819D02*
X145114286Y-88154819D01*
X145400000Y-88154819D02*
X145400000Y-87154819D01*
X145400000Y-87154819D02*
X145304762Y-87297676D01*
X145304762Y-87297676D02*
X145209524Y-87392914D01*
X145209524Y-87392914D02*
X145114286Y-87440533D01*
X139370833Y-87654819D02*
X139037500Y-87178628D01*
X138799405Y-87654819D02*
X138799405Y-86654819D01*
X138799405Y-86654819D02*
X139180357Y-86654819D01*
X139180357Y-86654819D02*
X139275595Y-86702438D01*
X139275595Y-86702438D02*
X139323214Y-86750057D01*
X139323214Y-86750057D02*
X139370833Y-86845295D01*
X139370833Y-86845295D02*
X139370833Y-86988152D01*
X139370833Y-86988152D02*
X139323214Y-87083390D01*
X139323214Y-87083390D02*
X139275595Y-87131009D01*
X139275595Y-87131009D02*
X139180357Y-87178628D01*
X139180357Y-87178628D02*
X138799405Y-87178628D01*
X139751786Y-86750057D02*
X139799405Y-86702438D01*
X139799405Y-86702438D02*
X139894643Y-86654819D01*
X139894643Y-86654819D02*
X140132738Y-86654819D01*
X140132738Y-86654819D02*
X140227976Y-86702438D01*
X140227976Y-86702438D02*
X140275595Y-86750057D01*
X140275595Y-86750057D02*
X140323214Y-86845295D01*
X140323214Y-86845295D02*
X140323214Y-86940533D01*
X140323214Y-86940533D02*
X140275595Y-87083390D01*
X140275595Y-87083390D02*
X139704167Y-87654819D01*
X139704167Y-87654819D02*
X140323214Y-87654819D01*
X136666666Y-83624819D02*
X136666666Y-84339104D01*
X136666666Y-84339104D02*
X136619047Y-84481961D01*
X136619047Y-84481961D02*
X136523809Y-84577200D01*
X136523809Y-84577200D02*
X136380952Y-84624819D01*
X136380952Y-84624819D02*
X136285714Y-84624819D01*
X137571428Y-83958152D02*
X137571428Y-84624819D01*
X137333333Y-83577200D02*
X137095238Y-84291485D01*
X137095238Y-84291485D02*
X137714285Y-84291485D01*
X146433333Y-94859580D02*
X146385714Y-94907200D01*
X146385714Y-94907200D02*
X146242857Y-94954819D01*
X146242857Y-94954819D02*
X146147619Y-94954819D01*
X146147619Y-94954819D02*
X146004762Y-94907200D01*
X146004762Y-94907200D02*
X145909524Y-94811961D01*
X145909524Y-94811961D02*
X145861905Y-94716723D01*
X145861905Y-94716723D02*
X145814286Y-94526247D01*
X145814286Y-94526247D02*
X145814286Y-94383390D01*
X145814286Y-94383390D02*
X145861905Y-94192914D01*
X145861905Y-94192914D02*
X145909524Y-94097676D01*
X145909524Y-94097676D02*
X146004762Y-94002438D01*
X146004762Y-94002438D02*
X146147619Y-93954819D01*
X146147619Y-93954819D02*
X146242857Y-93954819D01*
X146242857Y-93954819D02*
X146385714Y-94002438D01*
X146385714Y-94002438D02*
X146433333Y-94050057D01*
X147385714Y-94954819D02*
X146814286Y-94954819D01*
X147100000Y-94954819D02*
X147100000Y-93954819D01*
X147100000Y-93954819D02*
X147004762Y-94097676D01*
X147004762Y-94097676D02*
X146909524Y-94192914D01*
X146909524Y-94192914D02*
X146814286Y-94240533D01*
X157166666Y-90124819D02*
X157166666Y-90839104D01*
X157166666Y-90839104D02*
X157119047Y-90981961D01*
X157119047Y-90981961D02*
X157023809Y-91077200D01*
X157023809Y-91077200D02*
X156880952Y-91124819D01*
X156880952Y-91124819D02*
X156785714Y-91124819D01*
X158166666Y-91124819D02*
X157595238Y-91124819D01*
X157880952Y-91124819D02*
X157880952Y-90124819D01*
X157880952Y-90124819D02*
X157785714Y-90267676D01*
X157785714Y-90267676D02*
X157690476Y-90362914D01*
X157690476Y-90362914D02*
X157595238Y-90410533D01*
X147238095Y-109344819D02*
X147238095Y-110154342D01*
X147238095Y-110154342D02*
X147285714Y-110249580D01*
X147285714Y-110249580D02*
X147333333Y-110297200D01*
X147333333Y-110297200D02*
X147428571Y-110344819D01*
X147428571Y-110344819D02*
X147619047Y-110344819D01*
X147619047Y-110344819D02*
X147714285Y-110297200D01*
X147714285Y-110297200D02*
X147761904Y-110249580D01*
X147761904Y-110249580D02*
X147809523Y-110154342D01*
X147809523Y-110154342D02*
X147809523Y-109344819D01*
X148809523Y-110344819D02*
X148238095Y-110344819D01*
X148523809Y-110344819D02*
X148523809Y-109344819D01*
X148523809Y-109344819D02*
X148428571Y-109487676D01*
X148428571Y-109487676D02*
X148333333Y-109582914D01*
X148333333Y-109582914D02*
X148238095Y-109630533D01*
X149745833Y-90304819D02*
X149412500Y-89828628D01*
X149174405Y-90304819D02*
X149174405Y-89304819D01*
X149174405Y-89304819D02*
X149555357Y-89304819D01*
X149555357Y-89304819D02*
X149650595Y-89352438D01*
X149650595Y-89352438D02*
X149698214Y-89400057D01*
X149698214Y-89400057D02*
X149745833Y-89495295D01*
X149745833Y-89495295D02*
X149745833Y-89638152D01*
X149745833Y-89638152D02*
X149698214Y-89733390D01*
X149698214Y-89733390D02*
X149650595Y-89781009D01*
X149650595Y-89781009D02*
X149555357Y-89828628D01*
X149555357Y-89828628D02*
X149174405Y-89828628D01*
X150698214Y-90304819D02*
X150126786Y-90304819D01*
X150412500Y-90304819D02*
X150412500Y-89304819D01*
X150412500Y-89304819D02*
X150317262Y-89447676D01*
X150317262Y-89447676D02*
X150222024Y-89542914D01*
X150222024Y-89542914D02*
X150126786Y-89590533D01*
D11*
%TO.C,D1*%
X143962500Y-90160000D02*
X146647500Y-90160000D01*
X146647500Y-88240000D02*
X143962500Y-88240000D01*
X146647500Y-90160000D02*
X146647500Y-88240000D01*
%TO.C,R2*%
X140785436Y-88465000D02*
X141239564Y-88465000D01*
X140785436Y-89935000D02*
X141239564Y-89935000D01*
%TO.C,J4*%
X135670000Y-85170000D02*
X137000000Y-85170000D01*
X135670000Y-86500000D02*
X135670000Y-85170000D01*
X135670000Y-87770000D02*
X135670000Y-90370000D01*
X135670000Y-87770000D02*
X138330000Y-87770000D01*
X135670000Y-90370000D02*
X138330000Y-90370000D01*
X138330000Y-87770000D02*
X138330000Y-90370000D01*
%TO.C,C1*%
X143911252Y-93765000D02*
X143388748Y-93765000D01*
X143911252Y-95235000D02*
X143388748Y-95235000D01*
%TO.C,J1*%
X156170000Y-91670000D02*
X157500000Y-91670000D01*
X156170000Y-93000000D02*
X156170000Y-91670000D01*
X156170000Y-94270000D02*
X156170000Y-112110000D01*
X156170000Y-94270000D02*
X158830000Y-94270000D01*
X156170000Y-112110000D02*
X158830000Y-112110000D01*
X158830000Y-94270000D02*
X158830000Y-112110000D01*
%TO.C,U1*%
X143990000Y-96205000D02*
X143990000Y-96440000D01*
X143990000Y-109225000D02*
X143990000Y-108990000D01*
X147850000Y-96205000D02*
X143990000Y-96205000D01*
X147850000Y-96205000D02*
X151710000Y-96205000D01*
X147850000Y-109225000D02*
X143990000Y-109225000D01*
X147850000Y-109225000D02*
X151710000Y-109225000D01*
X151710000Y-96205000D02*
X151710000Y-96440000D01*
X151710000Y-109225000D02*
X151710000Y-108990000D01*
X143137500Y-96440000D02*
X142797500Y-95970000D01*
X143477500Y-95970000D01*
X143137500Y-96440000D01*
G36*
X143137500Y-96440000D02*
G01*
X142797500Y-95970000D01*
X143477500Y-95970000D01*
X143137500Y-96440000D01*
G37*
%TO.C,R1*%
X149685436Y-90765000D02*
X150139564Y-90765000D01*
X149685436Y-92235000D02*
X150139564Y-92235000D01*
%TD*%
M02*
