%TF.GenerationSoftware,KiCad,Pcbnew,8.0.0*%
%TF.CreationDate,2024-03-24T15:12:36-05:00*%
%TF.ProjectId,PIC Developement Board v1.0,50494320-4465-4766-956c-6f70656d656e,rev?*%
%TF.SameCoordinates,Original*%
%TF.FileFunction,Legend,Bot*%
%TF.FilePolarity,Positive*%
%FSLAX46Y46*%
G04 Gerber Fmt 4.6, Leading zero omitted, Abs format (unit mm)*
G04 Created by KiCad (PCBNEW 8.0.0) date 2024-03-24 15:12:36*
%MOMM*%
%LPD*%
G01*
G04 APERTURE LIST*
%ADD10C,0.150000*%
%ADD11C,0.120000*%
G04 APERTURE END LIST*
D10*
X141333333Y-91394819D02*
X141333333Y-92109104D01*
X141333333Y-92109104D02*
X141380952Y-92251961D01*
X141380952Y-92251961D02*
X141476190Y-92347200D01*
X141476190Y-92347200D02*
X141619047Y-92394819D01*
X141619047Y-92394819D02*
X141714285Y-92394819D01*
X140952380Y-91394819D02*
X140333333Y-91394819D01*
X140333333Y-91394819D02*
X140666666Y-91775771D01*
X140666666Y-91775771D02*
X140523809Y-91775771D01*
X140523809Y-91775771D02*
X140428571Y-91823390D01*
X140428571Y-91823390D02*
X140380952Y-91871009D01*
X140380952Y-91871009D02*
X140333333Y-91966247D01*
X140333333Y-91966247D02*
X140333333Y-92204342D01*
X140333333Y-92204342D02*
X140380952Y-92299580D01*
X140380952Y-92299580D02*
X140428571Y-92347200D01*
X140428571Y-92347200D02*
X140523809Y-92394819D01*
X140523809Y-92394819D02*
X140809523Y-92394819D01*
X140809523Y-92394819D02*
X140904761Y-92347200D01*
X140904761Y-92347200D02*
X140952380Y-92299580D01*
D11*
%TO.C,J3*%
X140305000Y-94185000D02*
X140391724Y-94185000D01*
X140305000Y-108060000D02*
X140305000Y-94185000D01*
X140305000Y-108060000D02*
X140605507Y-108060000D01*
X141000000Y-92815000D02*
X141695000Y-92815000D01*
X141394493Y-108060000D02*
X141695000Y-108060000D01*
X141608276Y-94185000D02*
X141695000Y-94185000D01*
X141695000Y-92815000D02*
X141695000Y-93500000D01*
X141695000Y-108060000D02*
X141695000Y-94185000D01*
%TD*%
M02*
