%TF.GenerationSoftware,KiCad,Pcbnew,8.0.0*%
%TF.CreationDate,2024-03-30T13:04:04-05:00*%
%TF.ProjectId,PIC_DEV_Board,5049435f-4445-4565-9f42-6f6172642e6b,rev?*%
%TF.SameCoordinates,Original*%
%TF.FileFunction,Soldermask,Top*%
%TF.FilePolarity,Negative*%
%FSLAX46Y46*%
G04 Gerber Fmt 4.6, Leading zero omitted, Abs format (unit mm)*
G04 Created by KiCad (PCBNEW 8.0.0) date 2024-03-30 13:04:04*
%MOMM*%
%LPD*%
G01*
G04 APERTURE LIST*
G04 Aperture macros list*
%AMRoundRect*
0 Rectangle with rounded corners*
0 $1 Rounding radius*
0 $2 $3 $4 $5 $6 $7 $8 $9 X,Y pos of 4 corners*
0 Add a 4 corners polygon primitive as box body*
4,1,4,$2,$3,$4,$5,$6,$7,$8,$9,$2,$3,0*
0 Add four circle primitives for the rounded corners*
1,1,$1+$1,$2,$3*
1,1,$1+$1,$4,$5*
1,1,$1+$1,$6,$7*
1,1,$1+$1,$8,$9*
0 Add four rect primitives between the rounded corners*
20,1,$1+$1,$2,$3,$4,$5,0*
20,1,$1+$1,$4,$5,$6,$7,0*
20,1,$1+$1,$6,$7,$8,$9,0*
20,1,$1+$1,$8,$9,$2,$3,0*%
G04 Aperture macros list end*
%ADD10RoundRect,0.243750X0.243750X0.456250X-0.243750X0.456250X-0.243750X-0.456250X0.243750X-0.456250X0*%
%ADD11RoundRect,0.250000X-0.262500X-0.450000X0.262500X-0.450000X0.262500X0.450000X-0.262500X0.450000X0*%
%ADD12R,1.700000X1.700000*%
%ADD13O,1.700000X1.700000*%
%ADD14RoundRect,0.250000X0.250000X0.475000X-0.250000X0.475000X-0.250000X-0.475000X0.250000X-0.475000X0*%
%ADD15RoundRect,0.150000X-0.875000X-0.150000X0.875000X-0.150000X0.875000X0.150000X-0.875000X0.150000X0*%
G04 APERTURE END LIST*
D10*
%TO.C,D1*%
X145900000Y-89200000D03*
X144025000Y-89200000D03*
%TD*%
D11*
%TO.C,R2*%
X140100000Y-89200000D03*
X141925000Y-89200000D03*
%TD*%
D12*
%TO.C,J4*%
X137000000Y-86500000D03*
D13*
X137000000Y-89040000D03*
%TD*%
D14*
%TO.C,C1*%
X144600000Y-94500000D03*
X142700000Y-94500000D03*
%TD*%
D12*
%TO.C,J1*%
X157500000Y-93000000D03*
D13*
X157500000Y-95540000D03*
X157500000Y-98080000D03*
X157500000Y-100620000D03*
X157500000Y-103160000D03*
X157500000Y-105700000D03*
X157500000Y-108240000D03*
X157500000Y-110780000D03*
%TD*%
D15*
%TO.C,U1*%
X143200000Y-97000000D03*
X143200000Y-98270000D03*
X143200000Y-99540000D03*
X143200000Y-100810000D03*
X143200000Y-102080000D03*
X143200000Y-103350000D03*
X143200000Y-104620000D03*
X143200000Y-105890000D03*
X143200000Y-107160000D03*
X143200000Y-108430000D03*
X152500000Y-108430000D03*
X152500000Y-107160000D03*
X152500000Y-105890000D03*
X152500000Y-104620000D03*
X152500000Y-103350000D03*
X152500000Y-102080000D03*
X152500000Y-100810000D03*
X152500000Y-99540000D03*
X152500000Y-98270000D03*
X152500000Y-97000000D03*
%TD*%
D11*
%TO.C,R1*%
X149000000Y-91500000D03*
X150825000Y-91500000D03*
%TD*%
D12*
%TO.C,J3*%
X137000000Y-92980000D03*
D13*
X137000000Y-95520000D03*
X137000000Y-98060000D03*
X137000000Y-100600000D03*
X137000000Y-103140000D03*
X137000000Y-105680000D03*
X137000000Y-108220000D03*
X137000000Y-110760000D03*
X137000000Y-113300000D03*
X137000000Y-115840000D03*
X137000000Y-118380000D03*
X137000000Y-120920000D03*
X137000000Y-123460000D03*
X137000000Y-126000000D03*
X137000000Y-128540000D03*
%TD*%
M02*
