%TF.GenerationSoftware,KiCad,Pcbnew,8.0.0*%
%TF.CreationDate,2024-03-30T13:04:04-05:00*%
%TF.ProjectId,PIC_DEV_Board,5049435f-4445-4565-9f42-6f6172642e6b,rev?*%
%TF.SameCoordinates,Original*%
%TF.FileFunction,Copper,L1,Top*%
%TF.FilePolarity,Positive*%
%FSLAX46Y46*%
G04 Gerber Fmt 4.6, Leading zero omitted, Abs format (unit mm)*
G04 Created by KiCad (PCBNEW 8.0.0) date 2024-03-30 13:04:04*
%MOMM*%
%LPD*%
G01*
G04 APERTURE LIST*
G04 Aperture macros list*
%AMRoundRect*
0 Rectangle with rounded corners*
0 $1 Rounding radius*
0 $2 $3 $4 $5 $6 $7 $8 $9 X,Y pos of 4 corners*
0 Add a 4 corners polygon primitive as box body*
4,1,4,$2,$3,$4,$5,$6,$7,$8,$9,$2,$3,0*
0 Add four circle primitives for the rounded corners*
1,1,$1+$1,$2,$3*
1,1,$1+$1,$4,$5*
1,1,$1+$1,$6,$7*
1,1,$1+$1,$8,$9*
0 Add four rect primitives between the rounded corners*
20,1,$1+$1,$2,$3,$4,$5,0*
20,1,$1+$1,$4,$5,$6,$7,0*
20,1,$1+$1,$6,$7,$8,$9,0*
20,1,$1+$1,$8,$9,$2,$3,0*%
G04 Aperture macros list end*
%TA.AperFunction,SMDPad,CuDef*%
%ADD10RoundRect,0.243750X0.243750X0.456250X-0.243750X0.456250X-0.243750X-0.456250X0.243750X-0.456250X0*%
%TD*%
%TA.AperFunction,SMDPad,CuDef*%
%ADD11RoundRect,0.250000X-0.262500X-0.450000X0.262500X-0.450000X0.262500X0.450000X-0.262500X0.450000X0*%
%TD*%
%TA.AperFunction,ComponentPad*%
%ADD12R,1.700000X1.700000*%
%TD*%
%TA.AperFunction,ComponentPad*%
%ADD13O,1.700000X1.700000*%
%TD*%
%TA.AperFunction,SMDPad,CuDef*%
%ADD14RoundRect,0.250000X0.250000X0.475000X-0.250000X0.475000X-0.250000X-0.475000X0.250000X-0.475000X0*%
%TD*%
%TA.AperFunction,SMDPad,CuDef*%
%ADD15RoundRect,0.150000X-0.875000X-0.150000X0.875000X-0.150000X0.875000X0.150000X-0.875000X0.150000X0*%
%TD*%
%TA.AperFunction,ViaPad*%
%ADD16C,0.600000*%
%TD*%
%TA.AperFunction,Conductor*%
%ADD17C,0.200000*%
%TD*%
G04 APERTURE END LIST*
D10*
%TO.P,D1,1,K*%
%TO.N,Earth*%
X145900000Y-89200000D03*
%TO.P,D1,2,A*%
%TO.N,Net-(D1-A)*%
X144025000Y-89200000D03*
%TD*%
D11*
%TO.P,R2,1*%
%TO.N,Net-(J1-Pin_2)*%
X140100000Y-89200000D03*
%TO.P,R2,2*%
%TO.N,Net-(D1-A)*%
X141925000Y-89200000D03*
%TD*%
D12*
%TO.P,J4,1,Pin_1*%
%TO.N,Earth*%
X137000000Y-86500000D03*
D13*
%TO.P,J4,2,Pin_2*%
%TO.N,Net-(J1-Pin_2)*%
X137000000Y-89040000D03*
%TD*%
D14*
%TO.P,C1,1*%
%TO.N,Earth*%
X144600000Y-94500000D03*
%TO.P,C1,2*%
%TO.N,Net-(J1-Pin_2)*%
X142700000Y-94500000D03*
%TD*%
D12*
%TO.P,J1,1,Pin_1*%
%TO.N,Net-(J1-Pin_1)*%
X157500000Y-93000000D03*
D13*
%TO.P,J1,2,Pin_2*%
%TO.N,Net-(J1-Pin_2)*%
X157500000Y-95540000D03*
%TO.P,J1,3,Pin_3*%
%TO.N,Earth*%
X157500000Y-98080000D03*
%TO.P,J1,4,Pin_4*%
%TO.N,Net-(J1-Pin_4)*%
X157500000Y-100620000D03*
%TO.P,J1,5,Pin_5*%
%TO.N,Net-(J1-Pin_5)*%
X157500000Y-103160000D03*
%TO.P,J1,6,Pin_6*%
%TO.N,unconnected-(J1-Pin_6-Pad6)*%
X157500000Y-105700000D03*
%TO.P,J1,7,Pin_7*%
%TO.N,unconnected-(J1-Pin_7-Pad7)*%
X157500000Y-108240000D03*
%TO.P,J1,8,Pin_8*%
%TO.N,unconnected-(J1-Pin_8-Pad8)*%
X157500000Y-110780000D03*
%TD*%
D15*
%TO.P,U1,1,Vdd*%
%TO.N,Net-(J1-Pin_2)*%
X143200000Y-97000000D03*
%TO.P,U1,2,RA5*%
%TO.N,Net-(J3-Pin_1)*%
X143200000Y-98270000D03*
%TO.P,U1,3,RA4*%
%TO.N,Net-(J3-Pin_2)*%
X143200000Y-99540000D03*
%TO.P,U1,4,Vpp/RA3*%
%TO.N,Net-(J1-Pin_1)*%
X143200000Y-100810000D03*
%TO.P,U1,5,RC5*%
%TO.N,Net-(J3-Pin_3)*%
X143200000Y-102080000D03*
%TO.P,U1,6,RC4*%
%TO.N,Net-(J3-Pin_4)*%
X143200000Y-103350000D03*
%TO.P,U1,7,RC3*%
%TO.N,Net-(J3-Pin_5)*%
X143200000Y-104620000D03*
%TO.P,U1,8,RC6*%
%TO.N,Net-(J3-Pin_6)*%
X143200000Y-105890000D03*
%TO.P,U1,9,RC7*%
%TO.N,Net-(J3-Pin_7)*%
X143200000Y-107160000D03*
%TO.P,U1,10,RB7*%
%TO.N,Net-(J3-Pin_8)*%
X143200000Y-108430000D03*
%TO.P,U1,11,RB6*%
%TO.N,Net-(J3-Pin_15)*%
X152500000Y-108430000D03*
%TO.P,U1,12,RB5*%
%TO.N,Net-(J3-Pin_14)*%
X152500000Y-107160000D03*
%TO.P,U1,13,RB4*%
%TO.N,Net-(J3-Pin_13)*%
X152500000Y-105890000D03*
%TO.P,U1,14,RC2*%
%TO.N,Net-(J3-Pin_12)*%
X152500000Y-104620000D03*
%TO.P,U1,15,RC1*%
%TO.N,Net-(J3-Pin_11)*%
X152500000Y-103350000D03*
%TO.P,U1,16,RC0*%
%TO.N,Net-(J3-Pin_10)*%
X152500000Y-102080000D03*
%TO.P,U1,17,RA2*%
%TO.N,Net-(J3-Pin_9)*%
X152500000Y-100810000D03*
%TO.P,U1,18,RA1/ICSPCLK*%
%TO.N,Net-(J1-Pin_5)*%
X152500000Y-99540000D03*
%TO.P,U1,19,RA0/ICSPDAT*%
%TO.N,Net-(J1-Pin_4)*%
X152500000Y-98270000D03*
%TO.P,U1,20,Vss*%
%TO.N,Earth*%
X152500000Y-97000000D03*
%TD*%
D11*
%TO.P,R1,1*%
%TO.N,Net-(J1-Pin_2)*%
X149000000Y-91500000D03*
%TO.P,R1,2*%
%TO.N,Net-(J1-Pin_1)*%
X150825000Y-91500000D03*
%TD*%
D12*
%TO.P,J3,1,Pin_1*%
%TO.N,Net-(J3-Pin_1)*%
X137000000Y-92980000D03*
D13*
%TO.P,J3,2,Pin_2*%
%TO.N,Net-(J3-Pin_2)*%
X137000000Y-95520000D03*
%TO.P,J3,3,Pin_3*%
%TO.N,Net-(J3-Pin_3)*%
X137000000Y-98060000D03*
%TO.P,J3,4,Pin_4*%
%TO.N,Net-(J3-Pin_4)*%
X137000000Y-100600000D03*
%TO.P,J3,5,Pin_5*%
%TO.N,Net-(J3-Pin_5)*%
X137000000Y-103140000D03*
%TO.P,J3,6,Pin_6*%
%TO.N,Net-(J3-Pin_6)*%
X137000000Y-105680000D03*
%TO.P,J3,7,Pin_7*%
%TO.N,Net-(J3-Pin_7)*%
X137000000Y-108220000D03*
%TO.P,J3,8,Pin_8*%
%TO.N,Net-(J3-Pin_8)*%
X137000000Y-110760000D03*
%TO.P,J3,9,Pin_9*%
%TO.N,Net-(J3-Pin_9)*%
X137000000Y-113300000D03*
%TO.P,J3,10,Pin_10*%
%TO.N,Net-(J3-Pin_10)*%
X137000000Y-115840000D03*
%TO.P,J3,11,Pin_11*%
%TO.N,Net-(J3-Pin_11)*%
X137000000Y-118380000D03*
%TO.P,J3,12,Pin_12*%
%TO.N,Net-(J3-Pin_12)*%
X137000000Y-120920000D03*
%TO.P,J3,13,Pin_13*%
%TO.N,Net-(J3-Pin_13)*%
X137000000Y-123460000D03*
%TO.P,J3,14,Pin_14*%
%TO.N,Net-(J3-Pin_14)*%
X137000000Y-126000000D03*
%TO.P,J3,15,Pin_15*%
%TO.N,Net-(J3-Pin_15)*%
X137000000Y-128540000D03*
%TD*%
D16*
%TO.N,Earth*%
X147500000Y-94500000D03*
X140000000Y-86500000D03*
X150000000Y-98000000D03*
X146500000Y-91500000D03*
%TD*%
D17*
%TO.N,Net-(J3-Pin_9)*%
X144900000Y-106834314D02*
X150924314Y-100810000D01*
X144900000Y-110600000D02*
X144900000Y-106834314D01*
X142200000Y-113300000D02*
X144900000Y-110600000D01*
X137000000Y-113300000D02*
X142200000Y-113300000D01*
%TO.N,Net-(J3-Pin_10)*%
X150920000Y-102080000D02*
X145500000Y-107500000D01*
X152500000Y-102080000D02*
X150920000Y-102080000D01*
X145500000Y-107500000D02*
X145500000Y-114000000D01*
X145500000Y-114000000D02*
X143660000Y-115840000D01*
X143660000Y-115840000D02*
X137000000Y-115840000D01*
%TO.N,Net-(J3-Pin_11)*%
X144720000Y-118380000D02*
X137000000Y-118380000D01*
X146100000Y-117000000D02*
X144720000Y-118380000D01*
X146100000Y-108725001D02*
X146100000Y-117000000D01*
X151475001Y-103350000D02*
X146100000Y-108725001D01*
X152500000Y-103350000D02*
X151475001Y-103350000D01*
%TO.N,Net-(D1-A)*%
X144025000Y-89200000D02*
X141925000Y-89200000D01*
%TO.N,Net-(J1-Pin_2)*%
X157500000Y-95540000D02*
X159400000Y-93640000D01*
X148100000Y-92400000D02*
X144800000Y-92400000D01*
X144800000Y-92400000D02*
X142700000Y-94500000D01*
X142700000Y-96500000D02*
X143200000Y-97000000D01*
X140100000Y-89200000D02*
X140100000Y-91900000D01*
X142800000Y-86500000D02*
X140100000Y-89200000D01*
X149000000Y-91500000D02*
X148100000Y-92400000D01*
X155900000Y-86500000D02*
X142800000Y-86500000D01*
X140100000Y-91900000D02*
X142700000Y-94500000D01*
X137000000Y-89040000D02*
X139940000Y-89040000D01*
X159400000Y-93640000D02*
X159400000Y-90000000D01*
X139940000Y-89040000D02*
X140100000Y-89200000D01*
X142700000Y-94500000D02*
X142700000Y-96500000D01*
X159400000Y-90000000D02*
X155900000Y-86500000D01*
%TO.N,Net-(J1-Pin_1)*%
X157500000Y-93000000D02*
X152000000Y-93000000D01*
X152000000Y-93000000D02*
X149000000Y-96000000D01*
X156000000Y-91500000D02*
X157500000Y-93000000D01*
X149000000Y-96000000D02*
X149000000Y-99000000D01*
X147190000Y-100810000D02*
X143200000Y-100810000D01*
X149000000Y-99000000D02*
X147190000Y-100810000D01*
X150825000Y-91500000D02*
X156000000Y-91500000D01*
%TO.N,Net-(J1-Pin_5)*%
X152500000Y-99540000D02*
X153880000Y-99540000D01*
X153880000Y-99540000D02*
X157500000Y-103160000D01*
%TO.N,Net-(J1-Pin_4)*%
X155150000Y-98270000D02*
X157500000Y-100620000D01*
X152500000Y-98270000D02*
X155150000Y-98270000D01*
%TO.N,Net-(J3-Pin_13)*%
X146460000Y-123460000D02*
X146500000Y-123500000D01*
X148000000Y-122000000D02*
X148000000Y-109994448D01*
X137000000Y-123460000D02*
X146460000Y-123460000D01*
X146500000Y-123500000D02*
X148000000Y-122000000D01*
X152104448Y-105890000D02*
X152500000Y-105890000D01*
X148000000Y-109994448D02*
X152104448Y-105890000D01*
%TO.N,Net-(J3-Pin_12)*%
X151475001Y-104620000D02*
X152500000Y-104620000D01*
X147000000Y-120000000D02*
X147000000Y-109095001D01*
X147000000Y-109095001D02*
X151475001Y-104620000D01*
X137000000Y-120920000D02*
X146080000Y-120920000D01*
X146080000Y-120920000D02*
X147000000Y-120000000D01*
%TO.N,Net-(J3-Pin_8)*%
X137000000Y-110760000D02*
X140870000Y-110760000D01*
X140870000Y-110760000D02*
X143200000Y-108430000D01*
%TO.N,Net-(J3-Pin_14)*%
X152104448Y-107160000D02*
X152500000Y-107160000D01*
X149000000Y-110264448D02*
X152104448Y-107160000D01*
X147500000Y-126000000D02*
X149000000Y-124500000D01*
X137000000Y-126000000D02*
X147500000Y-126000000D01*
X149000000Y-124500000D02*
X149000000Y-110264448D01*
%TO.N,Net-(J3-Pin_15)*%
X150000000Y-110930000D02*
X152500000Y-108430000D01*
X150000000Y-126000000D02*
X150000000Y-110930000D01*
X137000000Y-128540000D02*
X147460000Y-128540000D01*
X147460000Y-128540000D02*
X150000000Y-126000000D01*
%TO.N,Net-(J3-Pin_4)*%
X137000000Y-100600000D02*
X139750000Y-103350000D01*
X139750000Y-103350000D02*
X143200000Y-103350000D01*
%TO.N,Net-(J3-Pin_3)*%
X141020000Y-102080000D02*
X143200000Y-102080000D01*
X137000000Y-98060000D02*
X141020000Y-102080000D01*
%TO.N,Net-(J3-Pin_7)*%
X137000000Y-108220000D02*
X138060000Y-107160000D01*
X138060000Y-107160000D02*
X143200000Y-107160000D01*
%TO.N,Net-(J3-Pin_1)*%
X137514448Y-92980000D02*
X142804448Y-98270000D01*
X137000000Y-92980000D02*
X137514448Y-92980000D01*
X142804448Y-98270000D02*
X143200000Y-98270000D01*
%TO.N,Net-(J3-Pin_6)*%
X142990000Y-105680000D02*
X143200000Y-105890000D01*
X137000000Y-105680000D02*
X142990000Y-105680000D01*
%TO.N,Net-(J3-Pin_5)*%
X137000000Y-103140000D02*
X138480000Y-104620000D01*
X138480000Y-104620000D02*
X143200000Y-104620000D01*
%TO.N,Net-(J3-Pin_2)*%
X141020000Y-99540000D02*
X143200000Y-99540000D01*
X137000000Y-95520000D02*
X141020000Y-99540000D01*
%TO.N,Earth*%
X152500000Y-97000000D02*
X156420000Y-97000000D01*
X156420000Y-97000000D02*
X157500000Y-98080000D01*
X137000000Y-86500000D02*
X137500000Y-86500000D01*
X145900000Y-90900000D02*
X146500000Y-91500000D01*
X152500000Y-97000000D02*
X151000000Y-97000000D01*
X151000000Y-97000000D02*
X150000000Y-98000000D01*
X145900000Y-89200000D02*
X145900000Y-90900000D01*
X137500000Y-86500000D02*
X140000000Y-86500000D01*
X144600000Y-94500000D02*
X147500000Y-94500000D01*
%TD*%
M02*
