%TF.GenerationSoftware,KiCad,Pcbnew,8.0.0*%
%TF.CreationDate,2024-03-24T15:12:36-05:00*%
%TF.ProjectId,PIC Developement Board v1.0,50494320-4465-4766-956c-6f70656d656e,rev?*%
%TF.SameCoordinates,Original*%
%TF.FileFunction,Copper,L2,Bot*%
%TF.FilePolarity,Positive*%
%FSLAX46Y46*%
G04 Gerber Fmt 4.6, Leading zero omitted, Abs format (unit mm)*
G04 Created by KiCad (PCBNEW 8.0.0) date 2024-03-24 15:12:36*
%MOMM*%
%LPD*%
G01*
G04 APERTURE LIST*
%TA.AperFunction,ComponentPad*%
%ADD10R,0.850000X0.850000*%
%TD*%
%TA.AperFunction,ComponentPad*%
%ADD11O,0.850000X0.850000*%
%TD*%
%TA.AperFunction,ViaPad*%
%ADD12C,0.600000*%
%TD*%
%TA.AperFunction,Conductor*%
%ADD13C,0.200000*%
%TD*%
G04 APERTURE END LIST*
D10*
%TO.P,J4,1,Pin_1*%
%TO.N,Earth*%
X147000000Y-90000000D03*
D11*
%TO.P,J4,2,Pin_2*%
%TO.N,Net-(J1-Pin_2)*%
X146000000Y-90000000D03*
%TD*%
D10*
%TO.P,J1,1,Pin_1*%
%TO.N,Net-(J1-Pin_1)*%
X159500000Y-93500000D03*
D11*
%TO.P,J1,2,Pin_2*%
%TO.N,Net-(J1-Pin_2)*%
X159500000Y-94500000D03*
%TO.P,J1,3,Pin_3*%
%TO.N,Earth*%
X159500000Y-95500000D03*
%TO.P,J1,4,Pin_4*%
%TO.N,Net-(J1-Pin_4)*%
X159500000Y-96500000D03*
%TO.P,J1,5,Pin_5*%
%TO.N,Net-(J1-Pin_5)*%
X159500000Y-97500000D03*
%TO.P,J1,6,Pin_6*%
%TO.N,unconnected-(J1-Pin_6-Pad6)*%
X159500000Y-98500000D03*
%TO.P,J1,7,Pin_7*%
%TO.N,unconnected-(J1-Pin_7-Pad7)*%
X159500000Y-99500000D03*
%TO.P,J1,8,Pin_8*%
%TO.N,unconnected-(J1-Pin_8-Pad8)*%
X159500000Y-100500000D03*
%TD*%
D10*
%TO.P,J3,1,Pin_1*%
%TO.N,Net-(J3-Pin_1)*%
X141000000Y-93500000D03*
D11*
%TO.P,J3,2,Pin_2*%
%TO.N,Net-(J3-Pin_2)*%
X141000000Y-94500000D03*
%TO.P,J3,3,Pin_3*%
%TO.N,Net-(J3-Pin_3)*%
X141000000Y-95500000D03*
%TO.P,J3,4,Pin_4*%
%TO.N,Net-(J3-Pin_4)*%
X141000000Y-96500000D03*
%TO.P,J3,5,Pin_5*%
%TO.N,Net-(J3-Pin_5)*%
X141000000Y-97500000D03*
%TO.P,J3,6,Pin_6*%
%TO.N,Net-(J3-Pin_6)*%
X141000000Y-98500000D03*
%TO.P,J3,7,Pin_7*%
%TO.N,Net-(J3-Pin_7)*%
X141000000Y-99500000D03*
%TO.P,J3,8,Pin_8*%
%TO.N,Net-(J3-Pin_8)*%
X141000000Y-100500000D03*
%TO.P,J3,9,Pin_9*%
%TO.N,Net-(J3-Pin_9)*%
X141000000Y-101500000D03*
%TO.P,J3,10,Pin_10*%
%TO.N,Net-(J3-Pin_10)*%
X141000000Y-102500000D03*
%TO.P,J3,11,Pin_11*%
%TO.N,Net-(J3-Pin_11)*%
X141000000Y-103500000D03*
%TO.P,J3,12,Pin_12*%
%TO.N,Net-(J3-Pin_12)*%
X141000000Y-104500000D03*
%TO.P,J3,13,Pin_13*%
%TO.N,Net-(J3-Pin_13)*%
X141000000Y-105500000D03*
%TO.P,J3,14,Pin_14*%
%TO.N,Net-(J3-Pin_14)*%
X141000000Y-106500000D03*
%TO.P,J3,15,Pin_15*%
%TO.N,Net-(J3-Pin_15)*%
X141000000Y-107500000D03*
%TD*%
D12*
%TO.N,Net-(J3-Pin_13)*%
X151500000Y-105500000D03*
%TO.N,Net-(J3-Pin_12)*%
X151500000Y-104500000D03*
%TO.N,Net-(J3-Pin_14)*%
X151500000Y-106500000D03*
%TO.N,Net-(J3-Pin_9)*%
X151500000Y-101500000D03*
%TO.N,Net-(J3-Pin_11)*%
X151500000Y-103500000D03*
%TO.N,Net-(J3-Pin_15)*%
X151500000Y-107500000D03*
%TO.N,Net-(J3-Pin_10)*%
X151500000Y-102500000D03*
%TO.N,Earth*%
X150500000Y-97000000D03*
%TD*%
D13*
%TO.N,Net-(J1-Pin_2)*%
X148775000Y-89275000D02*
X149500000Y-90000000D01*
X146123960Y-89275000D02*
X148775000Y-89275000D01*
X146000000Y-90000000D02*
X146000000Y-89398960D01*
X146000000Y-89398960D02*
X146123960Y-89275000D01*
%TO.N,Net-(J3-Pin_13)*%
X151500000Y-105500000D02*
X141000000Y-105500000D01*
%TO.N,Net-(J3-Pin_12)*%
X151500000Y-104500000D02*
X141000000Y-104500000D01*
%TO.N,Net-(J3-Pin_14)*%
X151500000Y-106500000D02*
X141000000Y-106500000D01*
%TO.N,Net-(J3-Pin_9)*%
X151500000Y-101500000D02*
X141000000Y-101500000D01*
%TO.N,Net-(J3-Pin_11)*%
X151500000Y-103500000D02*
X141000000Y-103500000D01*
%TO.N,Net-(J3-Pin_15)*%
X151500000Y-107500000D02*
X141000000Y-107500000D01*
%TO.N,Net-(J3-Pin_10)*%
X151500000Y-102500000D02*
X141000000Y-102500000D01*
%TO.N,Earth*%
X151500000Y-96000000D02*
X155500000Y-96000000D01*
X150500000Y-97000000D02*
X151500000Y-96000000D01*
%TD*%
M02*
