%TF.GenerationSoftware,KiCad,Pcbnew,8.0.0*%
%TF.CreationDate,2024-03-24T15:12:36-05:00*%
%TF.ProjectId,PIC Developement Board v1.0,50494320-4465-4766-956c-6f70656d656e,rev?*%
%TF.SameCoordinates,Original*%
%TF.FileFunction,Legend,Top*%
%TF.FilePolarity,Positive*%
%FSLAX46Y46*%
G04 Gerber Fmt 4.6, Leading zero omitted, Abs format (unit mm)*
G04 Created by KiCad (PCBNEW 8.0.0) date 2024-03-24 15:12:36*
%MOMM*%
%LPD*%
G01*
G04 APERTURE LIST*
%ADD10C,0.300000*%
%ADD11C,0.150000*%
%ADD12C,0.120000*%
G04 APERTURE END LIST*
D10*
X145054510Y-88229400D02*
X146197368Y-88229400D01*
X145625939Y-88800828D02*
X145625939Y-87657971D01*
D11*
X139954819Y-90738094D02*
X138954819Y-90738094D01*
X138954819Y-90738094D02*
X138954819Y-90499999D01*
X138954819Y-90499999D02*
X139002438Y-90357142D01*
X139002438Y-90357142D02*
X139097676Y-90261904D01*
X139097676Y-90261904D02*
X139192914Y-90214285D01*
X139192914Y-90214285D02*
X139383390Y-90166666D01*
X139383390Y-90166666D02*
X139526247Y-90166666D01*
X139526247Y-90166666D02*
X139716723Y-90214285D01*
X139716723Y-90214285D02*
X139811961Y-90261904D01*
X139811961Y-90261904D02*
X139907200Y-90357142D01*
X139907200Y-90357142D02*
X139954819Y-90499999D01*
X139954819Y-90499999D02*
X139954819Y-90738094D01*
X139954819Y-89214285D02*
X139954819Y-89785713D01*
X139954819Y-89499999D02*
X138954819Y-89499999D01*
X138954819Y-89499999D02*
X139097676Y-89595237D01*
X139097676Y-89595237D02*
X139192914Y-89690475D01*
X139192914Y-89690475D02*
X139240533Y-89785713D01*
X143954819Y-92666666D02*
X143478628Y-92999999D01*
X143954819Y-93238094D02*
X142954819Y-93238094D01*
X142954819Y-93238094D02*
X142954819Y-92857142D01*
X142954819Y-92857142D02*
X143002438Y-92761904D01*
X143002438Y-92761904D02*
X143050057Y-92714285D01*
X143050057Y-92714285D02*
X143145295Y-92666666D01*
X143145295Y-92666666D02*
X143288152Y-92666666D01*
X143288152Y-92666666D02*
X143383390Y-92714285D01*
X143383390Y-92714285D02*
X143431009Y-92761904D01*
X143431009Y-92761904D02*
X143478628Y-92857142D01*
X143478628Y-92857142D02*
X143478628Y-93238094D01*
X143050057Y-92285713D02*
X143002438Y-92238094D01*
X143002438Y-92238094D02*
X142954819Y-92142856D01*
X142954819Y-92142856D02*
X142954819Y-91904761D01*
X142954819Y-91904761D02*
X143002438Y-91809523D01*
X143002438Y-91809523D02*
X143050057Y-91761904D01*
X143050057Y-91761904D02*
X143145295Y-91714285D01*
X143145295Y-91714285D02*
X143240533Y-91714285D01*
X143240533Y-91714285D02*
X143383390Y-91761904D01*
X143383390Y-91761904D02*
X143954819Y-92333332D01*
X143954819Y-92333332D02*
X143954819Y-91714285D01*
X149333333Y-93359580D02*
X149285714Y-93407200D01*
X149285714Y-93407200D02*
X149142857Y-93454819D01*
X149142857Y-93454819D02*
X149047619Y-93454819D01*
X149047619Y-93454819D02*
X148904762Y-93407200D01*
X148904762Y-93407200D02*
X148809524Y-93311961D01*
X148809524Y-93311961D02*
X148761905Y-93216723D01*
X148761905Y-93216723D02*
X148714286Y-93026247D01*
X148714286Y-93026247D02*
X148714286Y-92883390D01*
X148714286Y-92883390D02*
X148761905Y-92692914D01*
X148761905Y-92692914D02*
X148809524Y-92597676D01*
X148809524Y-92597676D02*
X148904762Y-92502438D01*
X148904762Y-92502438D02*
X149047619Y-92454819D01*
X149047619Y-92454819D02*
X149142857Y-92454819D01*
X149142857Y-92454819D02*
X149285714Y-92502438D01*
X149285714Y-92502438D02*
X149333333Y-92550057D01*
X150285714Y-93454819D02*
X149714286Y-93454819D01*
X150000000Y-93454819D02*
X150000000Y-92454819D01*
X150000000Y-92454819D02*
X149904762Y-92597676D01*
X149904762Y-92597676D02*
X149809524Y-92692914D01*
X149809524Y-92692914D02*
X149714286Y-92740533D01*
X159166666Y-91394819D02*
X159166666Y-92109104D01*
X159166666Y-92109104D02*
X159119047Y-92251961D01*
X159119047Y-92251961D02*
X159023809Y-92347200D01*
X159023809Y-92347200D02*
X158880952Y-92394819D01*
X158880952Y-92394819D02*
X158785714Y-92394819D01*
X160166666Y-92394819D02*
X159595238Y-92394819D01*
X159880952Y-92394819D02*
X159880952Y-91394819D01*
X159880952Y-91394819D02*
X159785714Y-91537676D01*
X159785714Y-91537676D02*
X159690476Y-91632914D01*
X159690476Y-91632914D02*
X159595238Y-91680533D01*
X150238095Y-108454819D02*
X150238095Y-109264342D01*
X150238095Y-109264342D02*
X150285714Y-109359580D01*
X150285714Y-109359580D02*
X150333333Y-109407200D01*
X150333333Y-109407200D02*
X150428571Y-109454819D01*
X150428571Y-109454819D02*
X150619047Y-109454819D01*
X150619047Y-109454819D02*
X150714285Y-109407200D01*
X150714285Y-109407200D02*
X150761904Y-109359580D01*
X150761904Y-109359580D02*
X150809523Y-109264342D01*
X150809523Y-109264342D02*
X150809523Y-108454819D01*
X151809523Y-109454819D02*
X151238095Y-109454819D01*
X151523809Y-109454819D02*
X151523809Y-108454819D01*
X151523809Y-108454819D02*
X151428571Y-108597676D01*
X151428571Y-108597676D02*
X151333333Y-108692914D01*
X151333333Y-108692914D02*
X151238095Y-108740533D01*
X150333333Y-88804819D02*
X150000000Y-88328628D01*
X149761905Y-88804819D02*
X149761905Y-87804819D01*
X149761905Y-87804819D02*
X150142857Y-87804819D01*
X150142857Y-87804819D02*
X150238095Y-87852438D01*
X150238095Y-87852438D02*
X150285714Y-87900057D01*
X150285714Y-87900057D02*
X150333333Y-87995295D01*
X150333333Y-87995295D02*
X150333333Y-88138152D01*
X150333333Y-88138152D02*
X150285714Y-88233390D01*
X150285714Y-88233390D02*
X150238095Y-88281009D01*
X150238095Y-88281009D02*
X150142857Y-88328628D01*
X150142857Y-88328628D02*
X149761905Y-88328628D01*
X151285714Y-88804819D02*
X150714286Y-88804819D01*
X151000000Y-88804819D02*
X151000000Y-87804819D01*
X151000000Y-87804819D02*
X150904762Y-87947676D01*
X150904762Y-87947676D02*
X150809524Y-88042914D01*
X150809524Y-88042914D02*
X150714286Y-88090533D01*
D12*
%TO.C,D1*%
X140040000Y-88252500D02*
X140040000Y-90937500D01*
X141960000Y-88252500D02*
X140040000Y-88252500D01*
X141960000Y-90937500D02*
X141960000Y-88252500D01*
%TO.C,R2*%
X142765000Y-89685436D02*
X142765000Y-90139564D01*
X144235000Y-89685436D02*
X144235000Y-90139564D01*
%TO.C,J4*%
X145440000Y-89305000D02*
X145440000Y-89605507D01*
X145440000Y-90394493D02*
X145440000Y-90695000D01*
X146315000Y-89305000D02*
X145440000Y-89305000D01*
X146315000Y-89305000D02*
X146315000Y-89391724D01*
X146315000Y-90608276D02*
X146315000Y-90695000D01*
X146315000Y-90695000D02*
X145440000Y-90695000D01*
X147000000Y-89305000D02*
X147685000Y-89305000D01*
X147685000Y-89305000D02*
X147685000Y-90000000D01*
%TO.C,C1*%
X146811252Y-92265000D02*
X146288748Y-92265000D01*
X146811252Y-93735000D02*
X146288748Y-93735000D01*
%TO.C,J1*%
X158805000Y-92815000D02*
X159500000Y-92815000D01*
X158805000Y-93500000D02*
X158805000Y-92815000D01*
X158805000Y-94185000D02*
X158805000Y-101060000D01*
X158805000Y-94185000D02*
X158891724Y-94185000D01*
X158805000Y-101060000D02*
X159105507Y-101060000D01*
X159894493Y-101060000D02*
X160195000Y-101060000D01*
X160108276Y-94185000D02*
X160195000Y-94185000D01*
X160195000Y-94185000D02*
X160195000Y-101060000D01*
%TO.C,U1*%
X146990000Y-95315000D02*
X146990000Y-95550000D01*
X146990000Y-108335000D02*
X146990000Y-108100000D01*
X150850000Y-95315000D02*
X146990000Y-95315000D01*
X150850000Y-95315000D02*
X154710000Y-95315000D01*
X150850000Y-108335000D02*
X146990000Y-108335000D01*
X150850000Y-108335000D02*
X154710000Y-108335000D01*
X154710000Y-95315000D02*
X154710000Y-95550000D01*
X154710000Y-108335000D02*
X154710000Y-108100000D01*
X146137500Y-95550000D02*
X145797500Y-95080000D01*
X146477500Y-95080000D01*
X146137500Y-95550000D01*
G36*
X146137500Y-95550000D02*
G01*
X145797500Y-95080000D01*
X146477500Y-95080000D01*
X146137500Y-95550000D01*
G37*
%TO.C,R1*%
X150272936Y-89265000D02*
X150727064Y-89265000D01*
X150272936Y-90735000D02*
X150727064Y-90735000D01*
%TD*%
M02*
