%TF.GenerationSoftware,KiCad,Pcbnew,8.0.0*%
%TF.CreationDate,2024-03-30T13:04:04-05:00*%
%TF.ProjectId,PIC_DEV_Board,5049435f-4445-4565-9f42-6f6172642e6b,rev?*%
%TF.SameCoordinates,Original*%
%TF.FileFunction,Legend,Bot*%
%TF.FilePolarity,Positive*%
%FSLAX46Y46*%
G04 Gerber Fmt 4.6, Leading zero omitted, Abs format (unit mm)*
G04 Created by KiCad (PCBNEW 8.0.0) date 2024-03-30 13:04:04*
%MOMM*%
%LPD*%
G01*
G04 APERTURE LIST*
%ADD10C,0.150000*%
%ADD11C,0.120000*%
G04 APERTURE END LIST*
D10*
X137333333Y-90104819D02*
X137333333Y-90819104D01*
X137333333Y-90819104D02*
X137380952Y-90961961D01*
X137380952Y-90961961D02*
X137476190Y-91057200D01*
X137476190Y-91057200D02*
X137619047Y-91104819D01*
X137619047Y-91104819D02*
X137714285Y-91104819D01*
X136952380Y-90104819D02*
X136333333Y-90104819D01*
X136333333Y-90104819D02*
X136666666Y-90485771D01*
X136666666Y-90485771D02*
X136523809Y-90485771D01*
X136523809Y-90485771D02*
X136428571Y-90533390D01*
X136428571Y-90533390D02*
X136380952Y-90581009D01*
X136380952Y-90581009D02*
X136333333Y-90676247D01*
X136333333Y-90676247D02*
X136333333Y-90914342D01*
X136333333Y-90914342D02*
X136380952Y-91009580D01*
X136380952Y-91009580D02*
X136428571Y-91057200D01*
X136428571Y-91057200D02*
X136523809Y-91104819D01*
X136523809Y-91104819D02*
X136809523Y-91104819D01*
X136809523Y-91104819D02*
X136904761Y-91057200D01*
X136904761Y-91057200D02*
X136952380Y-91009580D01*
D11*
%TO.C,J3*%
X135670000Y-94250000D02*
X138330000Y-94250000D01*
X135670000Y-129870000D02*
X135670000Y-94250000D01*
X135670000Y-129870000D02*
X138330000Y-129870000D01*
X137000000Y-91650000D02*
X138330000Y-91650000D01*
X138330000Y-91650000D02*
X138330000Y-92980000D01*
X138330000Y-129870000D02*
X138330000Y-94250000D01*
%TD*%
M02*
