%TF.GenerationSoftware,KiCad,Pcbnew,8.0.0*%
%TF.CreationDate,2024-03-30T13:04:04-05:00*%
%TF.ProjectId,PIC_DEV_Board,5049435f-4445-4565-9f42-6f6172642e6b,rev?*%
%TF.SameCoordinates,Original*%
%TF.FileFunction,Copper,L2,Bot*%
%TF.FilePolarity,Positive*%
%FSLAX46Y46*%
G04 Gerber Fmt 4.6, Leading zero omitted, Abs format (unit mm)*
G04 Created by KiCad (PCBNEW 8.0.0) date 2024-03-30 13:04:04*
%MOMM*%
%LPD*%
G01*
G04 APERTURE LIST*
%TA.AperFunction,ComponentPad*%
%ADD10R,1.700000X1.700000*%
%TD*%
%TA.AperFunction,ComponentPad*%
%ADD11O,1.700000X1.700000*%
%TD*%
%TA.AperFunction,ViaPad*%
%ADD12C,0.600000*%
%TD*%
G04 APERTURE END LIST*
D10*
%TO.P,J4,1,Pin_1*%
%TO.N,Earth*%
X137000000Y-86500000D03*
D11*
%TO.P,J4,2,Pin_2*%
%TO.N,Net-(J1-Pin_2)*%
X137000000Y-89040000D03*
%TD*%
D10*
%TO.P,J1,1,Pin_1*%
%TO.N,Net-(J1-Pin_1)*%
X157500000Y-93000000D03*
D11*
%TO.P,J1,2,Pin_2*%
%TO.N,Net-(J1-Pin_2)*%
X157500000Y-95540000D03*
%TO.P,J1,3,Pin_3*%
%TO.N,Earth*%
X157500000Y-98080000D03*
%TO.P,J1,4,Pin_4*%
%TO.N,Net-(J1-Pin_4)*%
X157500000Y-100620000D03*
%TO.P,J1,5,Pin_5*%
%TO.N,Net-(J1-Pin_5)*%
X157500000Y-103160000D03*
%TO.P,J1,6,Pin_6*%
%TO.N,unconnected-(J1-Pin_6-Pad6)*%
X157500000Y-105700000D03*
%TO.P,J1,7,Pin_7*%
%TO.N,unconnected-(J1-Pin_7-Pad7)*%
X157500000Y-108240000D03*
%TO.P,J1,8,Pin_8*%
%TO.N,unconnected-(J1-Pin_8-Pad8)*%
X157500000Y-110780000D03*
%TD*%
D10*
%TO.P,J3,1,Pin_1*%
%TO.N,Net-(J3-Pin_1)*%
X137000000Y-92980000D03*
D11*
%TO.P,J3,2,Pin_2*%
%TO.N,Net-(J3-Pin_2)*%
X137000000Y-95520000D03*
%TO.P,J3,3,Pin_3*%
%TO.N,Net-(J3-Pin_3)*%
X137000000Y-98060000D03*
%TO.P,J3,4,Pin_4*%
%TO.N,Net-(J3-Pin_4)*%
X137000000Y-100600000D03*
%TO.P,J3,5,Pin_5*%
%TO.N,Net-(J3-Pin_5)*%
X137000000Y-103140000D03*
%TO.P,J3,6,Pin_6*%
%TO.N,Net-(J3-Pin_6)*%
X137000000Y-105680000D03*
%TO.P,J3,7,Pin_7*%
%TO.N,Net-(J3-Pin_7)*%
X137000000Y-108220000D03*
%TO.P,J3,8,Pin_8*%
%TO.N,Net-(J3-Pin_8)*%
X137000000Y-110760000D03*
%TO.P,J3,9,Pin_9*%
%TO.N,Net-(J3-Pin_9)*%
X137000000Y-113300000D03*
%TO.P,J3,10,Pin_10*%
%TO.N,Net-(J3-Pin_10)*%
X137000000Y-115840000D03*
%TO.P,J3,11,Pin_11*%
%TO.N,Net-(J3-Pin_11)*%
X137000000Y-118380000D03*
%TO.P,J3,12,Pin_12*%
%TO.N,Net-(J3-Pin_12)*%
X137000000Y-120920000D03*
%TO.P,J3,13,Pin_13*%
%TO.N,Net-(J3-Pin_13)*%
X137000000Y-123460000D03*
%TO.P,J3,14,Pin_14*%
%TO.N,Net-(J3-Pin_14)*%
X137000000Y-126000000D03*
%TO.P,J3,15,Pin_15*%
%TO.N,Net-(J3-Pin_15)*%
X137000000Y-128540000D03*
%TD*%
D12*
%TO.N,Earth*%
X147500000Y-94500000D03*
X140000000Y-86500000D03*
X150000000Y-98000000D03*
X146500000Y-91500000D03*
%TD*%
%TA.AperFunction,Conductor*%
%TO.N,Earth*%
G36*
X159442539Y-84520185D02*
G01*
X159488294Y-84572989D01*
X159499500Y-84624500D01*
X159499500Y-113876000D01*
X159479815Y-113943039D01*
X159427011Y-113988794D01*
X159375500Y-114000000D01*
X138358338Y-114000000D01*
X138291299Y-113980315D01*
X138245544Y-113927511D01*
X138235600Y-113858353D01*
X138245956Y-113823595D01*
X138273903Y-113763663D01*
X138335063Y-113535408D01*
X138355659Y-113300000D01*
X138335063Y-113064592D01*
X138273903Y-112836337D01*
X138174035Y-112622171D01*
X138038495Y-112428599D01*
X138038494Y-112428597D01*
X137871402Y-112261506D01*
X137871396Y-112261501D01*
X137685842Y-112131575D01*
X137642217Y-112076998D01*
X137635023Y-112007500D01*
X137666546Y-111945145D01*
X137685842Y-111928425D01*
X137708026Y-111912891D01*
X137871401Y-111798495D01*
X138038495Y-111631401D01*
X138174035Y-111437830D01*
X138273903Y-111223663D01*
X138335063Y-110995408D01*
X138353909Y-110780000D01*
X156144341Y-110780000D01*
X156164936Y-111015403D01*
X156164938Y-111015413D01*
X156226094Y-111243655D01*
X156226096Y-111243659D01*
X156226097Y-111243663D01*
X156316639Y-111437830D01*
X156325965Y-111457830D01*
X156325967Y-111457834D01*
X156434281Y-111612521D01*
X156461505Y-111651401D01*
X156628599Y-111818495D01*
X156725384Y-111886265D01*
X156822165Y-111954032D01*
X156822167Y-111954033D01*
X156822170Y-111954035D01*
X157036337Y-112053903D01*
X157264592Y-112115063D01*
X157452918Y-112131539D01*
X157499999Y-112135659D01*
X157500000Y-112135659D01*
X157500001Y-112135659D01*
X157546679Y-112131575D01*
X157735408Y-112115063D01*
X157963663Y-112053903D01*
X158177830Y-111954035D01*
X158371401Y-111818495D01*
X158538495Y-111651401D01*
X158674035Y-111457830D01*
X158773903Y-111243663D01*
X158835063Y-111015408D01*
X158855659Y-110780000D01*
X158835063Y-110544592D01*
X158773903Y-110316337D01*
X158674035Y-110102171D01*
X158538495Y-109908599D01*
X158538494Y-109908597D01*
X158371402Y-109741506D01*
X158371396Y-109741501D01*
X158185842Y-109611575D01*
X158142217Y-109556998D01*
X158135023Y-109487500D01*
X158166546Y-109425145D01*
X158185842Y-109408425D01*
X158214405Y-109388425D01*
X158371401Y-109278495D01*
X158538495Y-109111401D01*
X158674035Y-108917830D01*
X158773903Y-108703663D01*
X158835063Y-108475408D01*
X158855659Y-108240000D01*
X158835063Y-108004592D01*
X158773903Y-107776337D01*
X158674035Y-107562171D01*
X158538495Y-107368599D01*
X158538494Y-107368597D01*
X158371402Y-107201506D01*
X158371396Y-107201501D01*
X158185842Y-107071575D01*
X158142217Y-107016998D01*
X158135023Y-106947500D01*
X158166546Y-106885145D01*
X158185842Y-106868425D01*
X158214405Y-106848425D01*
X158371401Y-106738495D01*
X158538495Y-106571401D01*
X158674035Y-106377830D01*
X158773903Y-106163663D01*
X158835063Y-105935408D01*
X158855659Y-105700000D01*
X158835063Y-105464592D01*
X158773903Y-105236337D01*
X158674035Y-105022171D01*
X158538495Y-104828599D01*
X158538494Y-104828597D01*
X158371402Y-104661506D01*
X158371396Y-104661501D01*
X158185842Y-104531575D01*
X158142217Y-104476998D01*
X158135023Y-104407500D01*
X158166546Y-104345145D01*
X158185842Y-104328425D01*
X158214405Y-104308425D01*
X158371401Y-104198495D01*
X158538495Y-104031401D01*
X158674035Y-103837830D01*
X158773903Y-103623663D01*
X158835063Y-103395408D01*
X158855659Y-103160000D01*
X158835063Y-102924592D01*
X158773903Y-102696337D01*
X158674035Y-102482171D01*
X158538495Y-102288599D01*
X158538494Y-102288597D01*
X158371402Y-102121506D01*
X158371396Y-102121501D01*
X158185842Y-101991575D01*
X158142217Y-101936998D01*
X158135023Y-101867500D01*
X158166546Y-101805145D01*
X158185842Y-101788425D01*
X158214405Y-101768425D01*
X158371401Y-101658495D01*
X158538495Y-101491401D01*
X158674035Y-101297830D01*
X158773903Y-101083663D01*
X158835063Y-100855408D01*
X158855659Y-100620000D01*
X158835063Y-100384592D01*
X158773903Y-100156337D01*
X158674035Y-99942171D01*
X158538495Y-99748599D01*
X158538494Y-99748597D01*
X158371402Y-99581506D01*
X158371401Y-99581505D01*
X158185405Y-99451269D01*
X158141781Y-99396692D01*
X158134588Y-99327193D01*
X158166110Y-99264839D01*
X158185405Y-99248119D01*
X158371082Y-99118105D01*
X158538105Y-98951082D01*
X158673600Y-98757578D01*
X158773429Y-98543492D01*
X158773432Y-98543486D01*
X158830636Y-98330000D01*
X157933012Y-98330000D01*
X157965925Y-98272993D01*
X158000000Y-98145826D01*
X158000000Y-98014174D01*
X157965925Y-97887007D01*
X157933012Y-97830000D01*
X158830636Y-97830000D01*
X158830635Y-97829999D01*
X158773432Y-97616513D01*
X158773429Y-97616507D01*
X158673600Y-97402422D01*
X158673599Y-97402420D01*
X158538113Y-97208926D01*
X158538108Y-97208920D01*
X158371078Y-97041890D01*
X158185405Y-96911879D01*
X158141780Y-96857302D01*
X158134588Y-96787804D01*
X158166110Y-96725449D01*
X158185406Y-96708730D01*
X158206393Y-96694035D01*
X158371401Y-96578495D01*
X158538495Y-96411401D01*
X158674035Y-96217830D01*
X158773903Y-96003663D01*
X158835063Y-95775408D01*
X158855659Y-95540000D01*
X158835063Y-95304592D01*
X158773903Y-95076337D01*
X158674035Y-94862171D01*
X158538495Y-94668599D01*
X158416567Y-94546671D01*
X158383084Y-94485351D01*
X158388068Y-94415659D01*
X158429939Y-94359725D01*
X158460915Y-94342810D01*
X158592331Y-94293796D01*
X158707546Y-94207546D01*
X158793796Y-94092331D01*
X158844091Y-93957483D01*
X158850500Y-93897873D01*
X158850499Y-92102128D01*
X158844091Y-92042517D01*
X158836631Y-92022517D01*
X158793797Y-91907671D01*
X158793793Y-91907664D01*
X158707547Y-91792455D01*
X158707544Y-91792452D01*
X158592335Y-91706206D01*
X158592328Y-91706202D01*
X158457482Y-91655908D01*
X158457483Y-91655908D01*
X158397883Y-91649501D01*
X158397881Y-91649500D01*
X158397873Y-91649500D01*
X158397864Y-91649500D01*
X156602129Y-91649500D01*
X156602123Y-91649501D01*
X156542516Y-91655908D01*
X156407671Y-91706202D01*
X156407664Y-91706206D01*
X156292455Y-91792452D01*
X156292452Y-91792455D01*
X156206206Y-91907664D01*
X156206202Y-91907671D01*
X156155908Y-92042517D01*
X156151650Y-92082127D01*
X156149501Y-92102123D01*
X156149500Y-92102135D01*
X156149500Y-93897870D01*
X156149501Y-93897876D01*
X156155908Y-93957483D01*
X156206202Y-94092328D01*
X156206206Y-94092335D01*
X156292452Y-94207544D01*
X156292455Y-94207547D01*
X156407664Y-94293793D01*
X156407671Y-94293797D01*
X156539081Y-94342810D01*
X156595015Y-94384681D01*
X156619432Y-94450145D01*
X156604580Y-94518418D01*
X156583430Y-94546673D01*
X156461503Y-94668600D01*
X156325965Y-94862169D01*
X156325964Y-94862171D01*
X156226098Y-95076335D01*
X156226094Y-95076344D01*
X156164938Y-95304586D01*
X156164936Y-95304596D01*
X156144341Y-95539999D01*
X156144341Y-95540000D01*
X156164936Y-95775403D01*
X156164938Y-95775413D01*
X156226094Y-96003655D01*
X156226096Y-96003659D01*
X156226097Y-96003663D01*
X156316639Y-96197830D01*
X156325965Y-96217830D01*
X156325967Y-96217834D01*
X156461501Y-96411395D01*
X156461506Y-96411402D01*
X156628597Y-96578493D01*
X156628603Y-96578498D01*
X156814594Y-96708730D01*
X156858219Y-96763307D01*
X156865413Y-96832805D01*
X156833890Y-96895160D01*
X156814595Y-96911880D01*
X156628922Y-97041890D01*
X156628920Y-97041891D01*
X156461891Y-97208920D01*
X156461886Y-97208926D01*
X156326400Y-97402420D01*
X156326399Y-97402422D01*
X156226570Y-97616507D01*
X156226567Y-97616513D01*
X156169364Y-97829999D01*
X156169364Y-97830000D01*
X157066988Y-97830000D01*
X157034075Y-97887007D01*
X157000000Y-98014174D01*
X157000000Y-98145826D01*
X157034075Y-98272993D01*
X157066988Y-98330000D01*
X156169364Y-98330000D01*
X156226567Y-98543486D01*
X156226570Y-98543492D01*
X156326399Y-98757578D01*
X156461894Y-98951082D01*
X156628917Y-99118105D01*
X156814595Y-99248119D01*
X156858219Y-99302696D01*
X156865412Y-99372195D01*
X156833890Y-99434549D01*
X156814595Y-99451269D01*
X156628594Y-99581508D01*
X156461505Y-99748597D01*
X156325965Y-99942169D01*
X156325964Y-99942171D01*
X156226098Y-100156335D01*
X156226094Y-100156344D01*
X156164938Y-100384586D01*
X156164936Y-100384596D01*
X156144341Y-100619999D01*
X156144341Y-100620000D01*
X156164936Y-100855403D01*
X156164938Y-100855413D01*
X156226094Y-101083655D01*
X156226096Y-101083659D01*
X156226097Y-101083663D01*
X156316639Y-101277830D01*
X156325965Y-101297830D01*
X156325967Y-101297834D01*
X156461501Y-101491395D01*
X156461506Y-101491402D01*
X156628597Y-101658493D01*
X156628603Y-101658498D01*
X156814158Y-101788425D01*
X156857783Y-101843002D01*
X156864977Y-101912500D01*
X156833454Y-101974855D01*
X156814158Y-101991575D01*
X156628597Y-102121505D01*
X156461505Y-102288597D01*
X156325965Y-102482169D01*
X156325964Y-102482171D01*
X156226098Y-102696335D01*
X156226094Y-102696344D01*
X156164938Y-102924586D01*
X156164936Y-102924596D01*
X156144341Y-103159999D01*
X156144341Y-103160000D01*
X156164936Y-103395403D01*
X156164938Y-103395413D01*
X156226094Y-103623655D01*
X156226096Y-103623659D01*
X156226097Y-103623663D01*
X156316639Y-103817830D01*
X156325965Y-103837830D01*
X156325967Y-103837834D01*
X156461501Y-104031395D01*
X156461506Y-104031402D01*
X156628597Y-104198493D01*
X156628603Y-104198498D01*
X156814158Y-104328425D01*
X156857783Y-104383002D01*
X156864977Y-104452500D01*
X156833454Y-104514855D01*
X156814158Y-104531575D01*
X156628597Y-104661505D01*
X156461505Y-104828597D01*
X156325965Y-105022169D01*
X156325964Y-105022171D01*
X156226098Y-105236335D01*
X156226094Y-105236344D01*
X156164938Y-105464586D01*
X156164936Y-105464596D01*
X156144341Y-105699999D01*
X156144341Y-105700000D01*
X156164936Y-105935403D01*
X156164938Y-105935413D01*
X156226094Y-106163655D01*
X156226096Y-106163659D01*
X156226097Y-106163663D01*
X156316639Y-106357830D01*
X156325965Y-106377830D01*
X156325967Y-106377834D01*
X156461501Y-106571395D01*
X156461506Y-106571402D01*
X156628597Y-106738493D01*
X156628603Y-106738498D01*
X156814158Y-106868425D01*
X156857783Y-106923002D01*
X156864977Y-106992500D01*
X156833454Y-107054855D01*
X156814158Y-107071575D01*
X156628597Y-107201505D01*
X156461505Y-107368597D01*
X156325965Y-107562169D01*
X156325964Y-107562171D01*
X156226098Y-107776335D01*
X156226094Y-107776344D01*
X156164938Y-108004586D01*
X156164936Y-108004596D01*
X156144341Y-108239999D01*
X156144341Y-108240000D01*
X156164936Y-108475403D01*
X156164938Y-108475413D01*
X156226094Y-108703655D01*
X156226096Y-108703659D01*
X156226097Y-108703663D01*
X156316639Y-108897830D01*
X156325965Y-108917830D01*
X156325967Y-108917834D01*
X156461501Y-109111395D01*
X156461506Y-109111402D01*
X156628597Y-109278493D01*
X156628603Y-109278498D01*
X156814158Y-109408425D01*
X156857783Y-109463002D01*
X156864977Y-109532500D01*
X156833454Y-109594855D01*
X156814158Y-109611575D01*
X156628597Y-109741505D01*
X156461505Y-109908597D01*
X156325965Y-110102169D01*
X156325964Y-110102171D01*
X156226098Y-110316335D01*
X156226094Y-110316344D01*
X156164938Y-110544586D01*
X156164936Y-110544596D01*
X156144341Y-110779999D01*
X156144341Y-110780000D01*
X138353909Y-110780000D01*
X138355659Y-110760000D01*
X138335063Y-110524592D01*
X138273903Y-110296337D01*
X138174035Y-110082171D01*
X138038495Y-109888599D01*
X138038494Y-109888597D01*
X137871402Y-109721506D01*
X137871396Y-109721501D01*
X137685842Y-109591575D01*
X137642217Y-109536998D01*
X137635023Y-109467500D01*
X137666546Y-109405145D01*
X137685842Y-109388425D01*
X137708026Y-109372891D01*
X137871401Y-109258495D01*
X138038495Y-109091401D01*
X138174035Y-108897830D01*
X138273903Y-108683663D01*
X138335063Y-108455408D01*
X138355659Y-108220000D01*
X138335063Y-107984592D01*
X138273903Y-107756337D01*
X138174035Y-107542171D01*
X138038495Y-107348599D01*
X138038494Y-107348597D01*
X137871402Y-107181506D01*
X137871396Y-107181501D01*
X137685842Y-107051575D01*
X137642217Y-106996998D01*
X137635023Y-106927500D01*
X137666546Y-106865145D01*
X137685842Y-106848425D01*
X137708026Y-106832891D01*
X137871401Y-106718495D01*
X138038495Y-106551401D01*
X138174035Y-106357830D01*
X138273903Y-106143663D01*
X138335063Y-105915408D01*
X138355659Y-105680000D01*
X138335063Y-105444592D01*
X138273903Y-105216337D01*
X138174035Y-105002171D01*
X138038495Y-104808599D01*
X138038494Y-104808597D01*
X137871402Y-104641506D01*
X137871396Y-104641501D01*
X137685842Y-104511575D01*
X137642217Y-104456998D01*
X137635023Y-104387500D01*
X137666546Y-104325145D01*
X137685842Y-104308425D01*
X137708026Y-104292891D01*
X137871401Y-104178495D01*
X138038495Y-104011401D01*
X138174035Y-103817830D01*
X138273903Y-103603663D01*
X138335063Y-103375408D01*
X138355659Y-103140000D01*
X138335063Y-102904592D01*
X138273903Y-102676337D01*
X138174035Y-102462171D01*
X138038495Y-102268599D01*
X138038494Y-102268597D01*
X137871402Y-102101506D01*
X137871396Y-102101501D01*
X137685842Y-101971575D01*
X137642217Y-101916998D01*
X137635023Y-101847500D01*
X137666546Y-101785145D01*
X137685842Y-101768425D01*
X137708026Y-101752891D01*
X137871401Y-101638495D01*
X138038495Y-101471401D01*
X138174035Y-101277830D01*
X138273903Y-101063663D01*
X138335063Y-100835408D01*
X138355659Y-100600000D01*
X138335063Y-100364592D01*
X138273903Y-100136337D01*
X138174035Y-99922171D01*
X138038495Y-99728599D01*
X138038494Y-99728597D01*
X137871402Y-99561506D01*
X137871396Y-99561501D01*
X137685842Y-99431575D01*
X137642217Y-99376998D01*
X137635023Y-99307500D01*
X137666546Y-99245145D01*
X137685842Y-99228425D01*
X137708026Y-99212891D01*
X137871401Y-99098495D01*
X138038495Y-98931401D01*
X138174035Y-98737830D01*
X138273903Y-98523663D01*
X138335063Y-98295408D01*
X138355659Y-98060000D01*
X138335063Y-97824592D01*
X138279309Y-97616513D01*
X138273905Y-97596344D01*
X138273904Y-97596343D01*
X138273903Y-97596337D01*
X138174035Y-97382171D01*
X138038495Y-97188599D01*
X138038494Y-97188597D01*
X137871402Y-97021506D01*
X137871396Y-97021501D01*
X137685842Y-96891575D01*
X137642217Y-96836998D01*
X137635023Y-96767500D01*
X137666546Y-96705145D01*
X137685842Y-96688425D01*
X137708026Y-96672891D01*
X137871401Y-96558495D01*
X138038495Y-96391401D01*
X138174035Y-96197830D01*
X138273903Y-95983663D01*
X138335063Y-95755408D01*
X138355659Y-95520000D01*
X138335063Y-95284592D01*
X138273903Y-95056337D01*
X138174035Y-94842171D01*
X138038495Y-94648599D01*
X137916567Y-94526671D01*
X137883084Y-94465351D01*
X137888068Y-94395659D01*
X137929939Y-94339725D01*
X137960915Y-94322810D01*
X138092331Y-94273796D01*
X138207546Y-94187546D01*
X138293796Y-94072331D01*
X138344091Y-93937483D01*
X138350500Y-93877873D01*
X138350499Y-92082128D01*
X138344091Y-92022517D01*
X138301256Y-91907671D01*
X138293797Y-91887671D01*
X138293793Y-91887664D01*
X138207547Y-91772455D01*
X138207544Y-91772452D01*
X138092335Y-91686206D01*
X138092328Y-91686202D01*
X137957482Y-91635908D01*
X137957483Y-91635908D01*
X137897883Y-91629501D01*
X137897881Y-91629500D01*
X137897873Y-91629500D01*
X137897864Y-91629500D01*
X136102129Y-91629500D01*
X136102123Y-91629501D01*
X136042516Y-91635908D01*
X135907671Y-91686202D01*
X135907664Y-91686206D01*
X135792455Y-91772452D01*
X135792452Y-91772455D01*
X135706206Y-91887664D01*
X135706202Y-91887671D01*
X135655908Y-92022517D01*
X135649501Y-92082116D01*
X135649501Y-92082123D01*
X135649500Y-92082135D01*
X135649500Y-93877870D01*
X135649501Y-93877876D01*
X135655908Y-93937483D01*
X135706202Y-94072328D01*
X135706206Y-94072335D01*
X135792452Y-94187544D01*
X135792455Y-94187547D01*
X135907664Y-94273793D01*
X135907671Y-94273797D01*
X136039081Y-94322810D01*
X136095015Y-94364681D01*
X136119432Y-94430145D01*
X136104580Y-94498418D01*
X136083430Y-94526673D01*
X135961503Y-94648600D01*
X135825965Y-94842169D01*
X135825964Y-94842171D01*
X135726098Y-95056335D01*
X135726094Y-95056344D01*
X135664938Y-95284586D01*
X135664936Y-95284596D01*
X135644341Y-95519999D01*
X135644341Y-95520000D01*
X135664936Y-95755403D01*
X135664938Y-95755413D01*
X135726094Y-95983655D01*
X135726096Y-95983659D01*
X135726097Y-95983663D01*
X135735424Y-96003664D01*
X135825965Y-96197830D01*
X135825967Y-96197834D01*
X135961501Y-96391395D01*
X135961506Y-96391402D01*
X136128597Y-96558493D01*
X136128603Y-96558498D01*
X136314158Y-96688425D01*
X136357783Y-96743002D01*
X136364977Y-96812500D01*
X136333454Y-96874855D01*
X136314158Y-96891575D01*
X136128597Y-97021505D01*
X135961505Y-97188597D01*
X135825965Y-97382169D01*
X135825964Y-97382171D01*
X135726098Y-97596335D01*
X135726094Y-97596344D01*
X135664938Y-97824586D01*
X135664936Y-97824596D01*
X135644341Y-98059999D01*
X135644341Y-98060000D01*
X135664936Y-98295403D01*
X135664938Y-98295413D01*
X135726094Y-98523655D01*
X135726096Y-98523659D01*
X135726097Y-98523663D01*
X135825965Y-98737830D01*
X135825967Y-98737834D01*
X135961501Y-98931395D01*
X135961506Y-98931402D01*
X136128597Y-99098493D01*
X136128603Y-99098498D01*
X136314158Y-99228425D01*
X136357783Y-99283002D01*
X136364977Y-99352500D01*
X136333454Y-99414855D01*
X136314158Y-99431575D01*
X136128597Y-99561505D01*
X135961505Y-99728597D01*
X135825965Y-99922169D01*
X135825964Y-99922171D01*
X135726098Y-100136335D01*
X135726094Y-100136344D01*
X135664938Y-100364586D01*
X135664936Y-100364596D01*
X135644341Y-100599999D01*
X135644341Y-100600000D01*
X135664936Y-100835403D01*
X135664938Y-100835413D01*
X135726094Y-101063655D01*
X135726096Y-101063659D01*
X135726097Y-101063663D01*
X135735424Y-101083664D01*
X135825965Y-101277830D01*
X135825967Y-101277834D01*
X135961501Y-101471395D01*
X135961506Y-101471402D01*
X136128597Y-101638493D01*
X136128603Y-101638498D01*
X136314158Y-101768425D01*
X136357783Y-101823002D01*
X136364977Y-101892500D01*
X136333454Y-101954855D01*
X136314158Y-101971575D01*
X136128597Y-102101505D01*
X135961505Y-102268597D01*
X135825965Y-102462169D01*
X135825964Y-102462171D01*
X135726098Y-102676335D01*
X135726094Y-102676344D01*
X135664938Y-102904586D01*
X135664936Y-102904596D01*
X135644341Y-103139999D01*
X135644341Y-103140000D01*
X135664936Y-103375403D01*
X135664938Y-103375413D01*
X135726094Y-103603655D01*
X135726096Y-103603659D01*
X135726097Y-103603663D01*
X135735424Y-103623664D01*
X135825965Y-103817830D01*
X135825967Y-103817834D01*
X135961501Y-104011395D01*
X135961506Y-104011402D01*
X136128597Y-104178493D01*
X136128603Y-104178498D01*
X136314158Y-104308425D01*
X136357783Y-104363002D01*
X136364977Y-104432500D01*
X136333454Y-104494855D01*
X136314158Y-104511575D01*
X136128597Y-104641505D01*
X135961505Y-104808597D01*
X135825965Y-105002169D01*
X135825964Y-105002171D01*
X135726098Y-105216335D01*
X135726094Y-105216344D01*
X135664938Y-105444586D01*
X135664936Y-105444596D01*
X135644341Y-105679999D01*
X135644341Y-105680000D01*
X135664936Y-105915403D01*
X135664938Y-105915413D01*
X135726094Y-106143655D01*
X135726096Y-106143659D01*
X135726097Y-106143663D01*
X135735424Y-106163664D01*
X135825965Y-106357830D01*
X135825967Y-106357834D01*
X135961501Y-106551395D01*
X135961506Y-106551402D01*
X136128597Y-106718493D01*
X136128603Y-106718498D01*
X136314158Y-106848425D01*
X136357783Y-106903002D01*
X136364977Y-106972500D01*
X136333454Y-107034855D01*
X136314158Y-107051575D01*
X136128597Y-107181505D01*
X135961505Y-107348597D01*
X135825965Y-107542169D01*
X135825964Y-107542171D01*
X135726098Y-107756335D01*
X135726094Y-107756344D01*
X135664938Y-107984586D01*
X135664936Y-107984596D01*
X135644341Y-108219999D01*
X135644341Y-108220000D01*
X135664936Y-108455403D01*
X135664938Y-108455413D01*
X135726094Y-108683655D01*
X135726096Y-108683659D01*
X135726097Y-108683663D01*
X135735424Y-108703664D01*
X135825965Y-108897830D01*
X135825967Y-108897834D01*
X135961501Y-109091395D01*
X135961506Y-109091402D01*
X136128597Y-109258493D01*
X136128603Y-109258498D01*
X136314158Y-109388425D01*
X136357783Y-109443002D01*
X136364977Y-109512500D01*
X136333454Y-109574855D01*
X136314158Y-109591575D01*
X136128597Y-109721505D01*
X135961505Y-109888597D01*
X135825965Y-110082169D01*
X135825964Y-110082171D01*
X135726098Y-110296335D01*
X135726094Y-110296344D01*
X135664938Y-110524586D01*
X135664936Y-110524596D01*
X135644341Y-110759999D01*
X135644341Y-110760000D01*
X135664936Y-110995403D01*
X135664938Y-110995413D01*
X135726094Y-111223655D01*
X135726096Y-111223659D01*
X135726097Y-111223663D01*
X135735424Y-111243664D01*
X135825965Y-111437830D01*
X135825967Y-111437834D01*
X135961501Y-111631395D01*
X135961506Y-111631402D01*
X136128597Y-111798493D01*
X136128603Y-111798498D01*
X136314158Y-111928425D01*
X136357783Y-111983002D01*
X136364977Y-112052500D01*
X136333454Y-112114855D01*
X136314158Y-112131575D01*
X136128597Y-112261505D01*
X135961505Y-112428597D01*
X135825965Y-112622169D01*
X135825964Y-112622171D01*
X135726098Y-112836335D01*
X135726094Y-112836344D01*
X135664938Y-113064586D01*
X135664936Y-113064596D01*
X135644341Y-113299999D01*
X135644341Y-113300000D01*
X135664936Y-113535403D01*
X135664938Y-113535413D01*
X135726094Y-113763655D01*
X135726096Y-113763659D01*
X135726097Y-113763663D01*
X135754044Y-113823595D01*
X135764536Y-113892673D01*
X135736016Y-113956457D01*
X135677540Y-113994696D01*
X135641662Y-114000000D01*
X135124500Y-114000000D01*
X135057461Y-113980315D01*
X135011706Y-113927511D01*
X135000500Y-113876000D01*
X135000500Y-89040000D01*
X135644341Y-89040000D01*
X135664936Y-89275403D01*
X135664938Y-89275413D01*
X135726094Y-89503655D01*
X135726096Y-89503659D01*
X135726097Y-89503663D01*
X135825965Y-89717830D01*
X135825967Y-89717834D01*
X135934281Y-89872521D01*
X135961505Y-89911401D01*
X136128599Y-90078495D01*
X136225384Y-90146265D01*
X136322165Y-90214032D01*
X136322167Y-90214033D01*
X136322170Y-90214035D01*
X136536337Y-90313903D01*
X136764592Y-90375063D01*
X136952918Y-90391539D01*
X136999999Y-90395659D01*
X137000000Y-90395659D01*
X137000001Y-90395659D01*
X137039234Y-90392226D01*
X137235408Y-90375063D01*
X137463663Y-90313903D01*
X137677830Y-90214035D01*
X137871401Y-90078495D01*
X138038495Y-89911401D01*
X138174035Y-89717830D01*
X138273903Y-89503663D01*
X138335063Y-89275408D01*
X138355659Y-89040000D01*
X138335063Y-88804592D01*
X138273903Y-88576337D01*
X138174035Y-88362171D01*
X138038495Y-88168599D01*
X137916179Y-88046283D01*
X137882696Y-87984963D01*
X137887680Y-87915271D01*
X137929551Y-87859337D01*
X137960529Y-87842422D01*
X138092086Y-87793354D01*
X138092093Y-87793350D01*
X138207187Y-87707190D01*
X138207190Y-87707187D01*
X138293350Y-87592093D01*
X138293354Y-87592086D01*
X138343596Y-87457379D01*
X138343598Y-87457372D01*
X138349999Y-87397844D01*
X138350000Y-87397827D01*
X138350000Y-86750000D01*
X137433012Y-86750000D01*
X137465925Y-86692993D01*
X137500000Y-86565826D01*
X137500000Y-86434174D01*
X137465925Y-86307007D01*
X137433012Y-86250000D01*
X138350000Y-86250000D01*
X138350000Y-85602172D01*
X138349999Y-85602155D01*
X138343598Y-85542627D01*
X138343596Y-85542620D01*
X138293354Y-85407913D01*
X138293350Y-85407906D01*
X138207190Y-85292812D01*
X138207187Y-85292809D01*
X138092093Y-85206649D01*
X138092086Y-85206645D01*
X137957379Y-85156403D01*
X137957372Y-85156401D01*
X137897844Y-85150000D01*
X137250000Y-85150000D01*
X137250000Y-86066988D01*
X137192993Y-86034075D01*
X137065826Y-86000000D01*
X136934174Y-86000000D01*
X136807007Y-86034075D01*
X136750000Y-86066988D01*
X136750000Y-85150000D01*
X136102155Y-85150000D01*
X136042627Y-85156401D01*
X136042620Y-85156403D01*
X135907913Y-85206645D01*
X135907906Y-85206649D01*
X135792812Y-85292809D01*
X135792809Y-85292812D01*
X135706649Y-85407906D01*
X135706645Y-85407913D01*
X135656403Y-85542620D01*
X135656401Y-85542627D01*
X135650000Y-85602155D01*
X135650000Y-86250000D01*
X136566988Y-86250000D01*
X136534075Y-86307007D01*
X136500000Y-86434174D01*
X136500000Y-86565826D01*
X136534075Y-86692993D01*
X136566988Y-86750000D01*
X135650000Y-86750000D01*
X135650000Y-87397844D01*
X135656401Y-87457372D01*
X135656403Y-87457379D01*
X135706645Y-87592086D01*
X135706649Y-87592093D01*
X135792809Y-87707187D01*
X135792812Y-87707190D01*
X135907906Y-87793350D01*
X135907913Y-87793354D01*
X136039470Y-87842421D01*
X136095403Y-87884292D01*
X136119821Y-87949756D01*
X136104970Y-88018029D01*
X136083819Y-88046284D01*
X135961503Y-88168600D01*
X135825965Y-88362169D01*
X135825964Y-88362171D01*
X135726098Y-88576335D01*
X135726094Y-88576344D01*
X135664938Y-88804586D01*
X135664936Y-88804596D01*
X135644341Y-89039999D01*
X135644341Y-89040000D01*
X135000500Y-89040000D01*
X135000500Y-84624500D01*
X135020185Y-84557461D01*
X135072989Y-84511706D01*
X135124500Y-84500500D01*
X159375500Y-84500500D01*
X159442539Y-84520185D01*
G37*
%TD.AperFunction*%
%TD*%
M02*
