M48
; DRILL file {KiCad 8.0.0} date 2024-03-30T13:04:07-0500
; FORMAT={-:-/ absolute / inch / decimal}
; #@! TF.CreationDate,2024-03-30T13:04:07-05:00
; #@! TF.GenerationSoftware,Kicad,Pcbnew,8.0.0
; #@! TF.FileFunction,Plated,1,2,PTH
FMAT,2
INCH
; #@! TA.AperFunction,Plated,PTH,ViaDrill
T1C0.0118
; #@! TA.AperFunction,Plated,PTH,ComponentDrill
T2C0.0394
%
G90
G05
T1
X5.5118Y-3.4055
X5.7677Y-3.6024
X5.8071Y-3.7205
X5.9055Y-3.8583
T2
X5.3937Y-3.4055
X5.3937Y-3.5055
X5.3937Y-3.6606
X5.3937Y-3.7606
X5.3937Y-3.8606
X5.3937Y-3.9606
X5.3937Y-4.0606
X5.3937Y-4.1606
X5.3937Y-4.2606
X5.3937Y-4.3606
X5.3937Y-4.4606
X5.3937Y-4.5606
X5.3937Y-4.6606
X5.3937Y-4.7606
X5.3937Y-4.8606
X5.3937Y-4.9606
X5.3937Y-5.0606
X6.2008Y-3.6614
X6.2008Y-3.7614
X6.2008Y-3.8614
X6.2008Y-3.9614
X6.2008Y-4.0614
X6.2008Y-4.1614
X6.2008Y-4.2614
X6.2008Y-4.3614
M30
